<?xml version="1.0" encoding="UTF-8"?>
<svg version="1.1" xmlns="http://www.w3.org/2000/svg" width="10334" height="10334">
<path d="M0 0 C3410.22 0 6820.44 0 10334 0 C10334 3410.22 10334 6820.44 10334 10334 C6923.78 10334 3513.56 10334 0 10334 C0 6923.78 0 3513.56 0 0 Z " fill="#1F2010" transform="translate(0,0)"/>
<path d="M0 0 C2.7838806 3.32966573 5.0429693 6.63187865 7.109375 10.4453125 C7.98130493 12.03956055 7.98130493 12.03956055 8.87084961 13.66601562 C9.49096924 14.80748047 10.11108887 15.94894531 10.75 17.125 C17.87982379 30.1298906 25.36868609 42.89299929 32.98388672 55.62060547 C35.00146817 59.00246094 37.00504036 62.39220953 39.00390625 65.78515625 C52.56516667 88.79805365 66.5402588 111.54042506 81 134 C81.37208588 134.5779834 81.74417175 135.1559668 82.12753296 135.75146484 C89.61265038 147.36990882 97.18043474 158.93353796 104.78051758 170.47705078 C106.05839526 172.41897987 107.33507634 174.36169687 108.6105957 176.30517578 C117.73724055 190.25511459 117.73724055 190.25511459 127.39575195 203.83740234 C129.77074315 207.03899601 132.00985 210.3283907 134.25 213.625 C153.07516961 241.14582535 172.81664302 268.031778 193.08789062 294.50146484 C194.90027753 296.86969359 196.70874282 299.24085109 198.515625 301.61328125 C207.88141181 313.9042502 217.38645027 326.06275154 227.15966797 338.03271484 C230.70133832 342.37754226 234.18148433 346.76463016 237.625 351.1875 C242.07035765 356.88880411 246.68920585 362.4202948 251.3828125 367.91796875 C253.79496524 370.74683013 256.15419998 373.61575122 258.5 376.5 C266.48160998 386.29625665 274.72675487 395.87304789 282.9609375 405.45703125 C284.99369224 407.82378525 287.01917916 410.19647184 289.0390625 412.57421875 C294.74893597 419.28603425 300.56758744 425.8667383 306.55078125 432.3359375 C308.56873779 434.53090777 310.54803445 436.7466621 312.5 439 C315.9088006 442.93323147 319.43383623 446.75690432 322.9597168 450.5847168 C325.45111802 453.29435539 327.91153339 456.02251601 330.3125 458.8125 C335.41041657 464.68724195 340.79066765 470.30898958 346.11083984 475.98144531 C347.99153635 477.99095665 349.86592913 480.00615127 351.73828125 482.0234375 C357.11741229 487.81513571 362.49801622 493.57302646 368.1419363 499.10948277 C369.93157993 500.93038489 371.59741728 502.80832482 373.25636292 504.74827576 C376.83482173 508.86210126 380.60043757 512.74177618 384.46069336 516.59008789 C385.17062943 517.30177628 385.88056549 518.01346466 386.61201477 518.74671936 C388.93546668 521.07453554 391.26251363 523.39871797 393.58984375 525.72265625 C395.21991827 527.35340537 396.84984441 528.98430283 398.47962952 530.61534119 C401.88640855 534.02358984 405.29497758 537.43003533 408.70483398 540.83520508 C413.06014794 545.18482223 417.41095661 549.53891383 421.76042843 553.89437199 C425.12248049 557.26004951 428.48692545 560.62332691 431.85208321 563.98589897 C433.45667333 565.58982532 435.06053011 567.19448569 436.66361809 568.79991341 C438.90996177 571.04881632 441.15952016 573.29445561 443.40991211 575.53930664 C444.3882048 576.52063568 444.3882048 576.52063568 445.38626099 577.52178955 C449.19346249 581.3117735 453.11070353 584.9149271 457.19030094 588.41060543 C460.10156343 590.96746413 462.79355818 593.73001491 465.5 596.5 C469.61343232 600.66560615 473.77743575 604.66870065 478.2421875 608.4609375 C480.65925174 610.57721152 482.87906093 612.86714128 485.12792969 615.15917969 C486.92763686 616.9288448 488.78110584 618.58222599 490.6953125 620.2265625 C495.03182272 623.99683414 499.20885468 627.91842412 503.375 631.875 C508.72745463 636.93584971 514.10517273 641.95486429 519.60546875 646.85546875 C522.46895541 649.41999432 525.29689875 652.02160202 528.125 654.625 C532.01655918 658.20347334 535.94681429 661.72831925 539.94140625 665.19140625 C542.4895665 667.4301125 544.99410593 669.71410212 547.5 672 C551.29009082 675.45643771 555.11056033 678.86843854 558.984375 682.23046875 C561.28607764 684.25114956 563.54764379 686.31312618 565.8125 688.375 C569.23229328 691.46636801 572.71958524 694.42459032 576.3125 697.3125 C581.12585437 701.20255931 585.6476145 705.32871834 590.16113281 709.55566406 C594.37393141 713.47878593 598.76395352 717.11896414 603.25390625 720.72265625 C606.26319147 723.21826547 609.13937022 725.83766805 612 728.5 C616.60998943 732.78960407 621.37783516 736.80411122 626.28515625 740.75390625 C629.10673495 743.0883059 631.80590712 745.51990598 634.5 748 C638.9698512 752.11378909 643.59044893 755.97087297 648.31640625 759.78515625 C650.94708557 761.95632827 653.47942424 764.20241357 656 766.5 C659.31989486 769.52282421 662.69764112 772.42512161 666.1875 775.25 C672.62711993 780.46518515 678.85455403 785.91331752 685.10351562 791.35351562 C688.07855189 793.93637409 691.0694406 796.50056914 694.0625 799.0625 C694.92258667 799.79883667 694.92258667 799.79883667 695.80004883 800.55004883 C696.95530518 801.53885203 698.11065976 802.52754049 699.26611328 803.51611328 C702.17894046 806.00895524 705.08934061 808.50462766 708 811 C709.16665518 812.0000134 710.33332184 813.00001341 711.5 814 C718.5 820 725.5 826 732.5 832 C733.36612915 832.74237915 733.36612915 832.74237915 734.24975586 833.49975586 C735.41728228 834.50051606 736.5847627 835.50132992 737.75219727 836.50219727 C740.65533629 838.99100676 743.55924949 841.47890091 746.46484375 843.96484375 C769.11627232 863.34985219 769.11627232 863.34985219 777.25 870.75 C780.50010013 873.7007488 783.82617333 876.50297627 787.25 879.25 C793.00946426 883.90658812 798.37948699 888.92834177 803.77734375 893.9921875 C806.82061941 896.8447641 809.92944134 899.6092621 813.0859375 902.3359375 C817.108299 905.83292933 821.04379566 909.42859365 825 913 C826.66640851 914.50028679 828.33307353 916.00028872 830 917.5 C830.82757813 918.24507812 831.65515625 918.99015625 832.5078125 919.7578125 C834.14739879 921.23292618 835.78799655 922.70691652 837.4296875 924.1796875 C843.48546989 929.61634836 849.49283941 935.10423228 855.48535156 940.61035156 C856.94374405 941.94838671 858.40540193 943.28286008 859.8671875 944.6171875 C881.78363821 964.6330246 881.78363821 964.6330246 891.16200256 974.19444275 C892.84984186 975.85249212 894.58399382 977.3766662 896.39233398 978.90063477 C902.62668054 984.32606721 908.38737712 990.24357558 914.22265625 996.08984375 C915.49468167 997.36119407 916.76685539 998.63239604 918.03916931 999.90345764 C920.69416228 1002.55698335 923.34735643 1005.21229094 925.99926758 1007.86889648 C929.38033978 1011.25566535 932.76588258 1014.63792393 936.15279484 1018.01885128 C938.77730568 1020.63973018 941.39940744 1023.26300892 944.02081108 1025.88699532 C945.26747921 1027.13432544 946.51487648 1028.38092731 947.76304817 1029.62675285 C959.52172793 1041.36817139 959.52172793 1041.36817139 964.69395447 1047.47377014 C966.51531188 1049.60218757 968.49037249 1051.55036137 970.5 1053.5 C973.78103368 1056.74256259 976.85459996 1060.07047022 979.85546875 1063.5703125 C982.83448821 1066.9454493 985.91961932 1070.21749566 989 1073.5 C993.76540984 1078.58702088 998.47586207 1083.69583829 1003 1089 C1003.87477272 1090.0210281 1004.74979699 1091.04184071 1005.625 1092.0625 C1007.14078689 1093.83045619 1008.65607027 1095.59882968 1010.16967773 1097.36865234 C1013.43615754 1101.1860376 1016.72243716 1104.98533323 1020.02197266 1108.77416992 C1025.8062969 1115.41910529 1031.45959075 1122.14928912 1037 1129 C1038.43682524 1130.75055405 1039.87434173 1132.50054093 1041.3125 1134.25 C1049.87443288 1144.72121408 1058.30721599 1155.28804534 1066.50683594 1166.04589844 C1068.25155328 1168.32920739 1070.00486568 1170.60581581 1071.7578125 1172.8828125 C1079.02144796 1182.33914484 1086.15025393 1191.85662447 1092.96044922 1201.64501953 C1094.88231693 1204.40468991 1096.81520565 1207.15573874 1098.76464844 1209.89599609 C1106.02518666 1220.10398673 1113.06898777 1230.4409496 1120 1240.875 C1120.52457794 1241.66358398 1121.04915588 1242.45216797 1121.58963013 1243.26464844 C1129.22270878 1254.74349443 1136.79298547 1266.24744457 1144 1278 C1144.63421875 1279.02931641 1145.2684375 1280.05863281 1145.921875 1281.11914062 C1155.12216703 1296.05974652 1164.06369265 1311.11496794 1172.5859375 1326.45556641 C1173.89500049 1328.81106614 1175.21160114 1331.16213824 1176.53125 1333.51171875 C1178.59500317 1337.19285033 1180.63797948 1340.88498562 1182.67041016 1344.58349609 C1183.57850218 1346.23393584 1184.48977981 1347.88262582 1185.40380859 1349.52978516 C1204.38583367 1383.79993448 1221.76926165 1419.03275858 1237.16790771 1455.05401611 C1237.9879382 1456.9717915 1238.81117125 1458.88816207 1239.63525391 1460.80419922 C1248.74086882 1482.01103208 1257.66444269 1503.31695278 1264.7265625 1525.3046875 C1265.71259358 1528.16599242 1266.76637089 1530.93845664 1267.90625 1533.73828125 C1270.11355812 1539.19417783 1272.02346967 1544.72712674 1273.875 1550.3125 C1274.22159668 1551.35575439 1274.56819336 1552.39900879 1274.92529297 1553.47387695 C1277.65525669 1561.77767393 1280.1376107 1570.13213495 1282.4777832 1578.55297852 C1283.66415957 1582.81493496 1284.88037364 1587.06740554 1286.10948181 1591.31719971 C1289.40856745 1602.74741316 1292.49277051 1614.22375816 1295.4375 1625.75 C1295.67267334 1626.6687793 1295.90784668 1627.58755859 1296.15014648 1628.53417969 C1301.7925737 1650.64654895 1307.13610066 1672.91694904 1310.296875 1695.5390625 C1310.85262326 1699.36394504 1311.63507768 1703.12645394 1312.421875 1706.91015625 C1314.18360028 1715.49191425 1315.36569903 1724.12895563 1316.5 1732.8125 C1316.71793505 1734.46411148 1316.93587127 1736.1157228 1317.15380859 1737.76733398 C1317.68371529 1741.80003508 1318.20509237 1745.83379075 1318.72399902 1749.86791992 C1318.96836151 1751.75559578 1319.21860718 1753.64250801 1319.46972656 1755.52929688 C1321.43786533 1770.35315059 1322.6013485 1785.21139136 1323.625 1800.125 C1323.71893036 1801.48578171 1323.71893036 1801.48578171 1323.8147583 1802.87405396 C1325.48321322 1827.33706078 1326.20907013 1851.72955608 1326.1875 1876.25 C1326.18709969 1877.27537117 1326.18709969 1877.27537117 1326.18669128 1878.32145691 C1326.16392455 1924.98476756 1324.30518088 1971.83874063 1317 2018 C1316.82936035 2019.09119141 1316.6587207 2020.18238281 1316.48291016 2021.30664062 C1315.34826629 2028.5421084 1314.18697888 2035.77293987 1313 2043 C1309.69991521 2039.16337581 1307.34234312 2035.11139988 1305.0625 2030.625 C1300.93269299 2022.66729031 1296.57525278 2014.8557106 1292.1418457 2007.0637207 C1289.28564106 2002.04229559 1286.4455397 1997.01383385 1283.65234375 1991.95703125 C1275.45131134 1977.12839966 1266.79893993 1962.63011321 1257.9453125 1948.18701172 C1255.22301094 1943.72705633 1252.54869888 1939.2391847 1249.875 1934.75 C1245.4748673 1927.38787486 1240.97926187 1920.08805978 1236.4375 1912.8125 C1235.8604834 1911.88727539 1235.2834668 1910.96205078 1234.68896484 1910.00878906 C1225.16709838 1894.8108837 1215.29977733 1879.83185515 1205.43920898 1864.85253906 C1204.18861024 1862.95166801 1202.93925966 1861.04997519 1201.69116211 1859.14746094 C1194.11149277 1847.59389768 1186.41080052 1836.15602755 1178.36859131 1824.91891479 C1175.9154399 1821.47932804 1173.49114884 1818.0194072 1171.0625 1814.5625 C1165.85531147 1807.17555813 1160.57728318 1799.84120263 1155.2734375 1792.5234375 C1153.12308618 1789.55633553 1150.98269684 1786.58249496 1148.8515625 1783.6015625 C1141.69737272 1773.61029003 1134.32969323 1763.80076047 1126.85546875 1754.046875 C1123.44978942 1749.60008126 1120.09353894 1745.11857424 1116.75 1740.625 C1111.94623482 1734.18549781 1106.97319206 1727.89729233 1101.9296875 1721.64453125 C1099.10674894 1718.14330587 1096.33108678 1714.60675326 1093.5625 1711.0625 C1087.9589552 1703.90303726 1082.22816924 1696.84935373 1076.4765625 1689.80859375 C1075.16952459 1688.2076452 1073.86576644 1686.60402024 1072.5625 1685 C1068.1341241 1679.5594239 1063.63414335 1674.18544004 1059.08984375 1668.84179688 C1056.1399459 1665.36719731 1053.2431728 1661.85524306 1050.375 1658.3125 C1046.79833687 1653.91485904 1043.05675177 1649.70731843 1039.23828125 1645.51953125 C1036.97152842 1642.96795083 1034.82459913 1640.34828468 1032.6875 1637.6875 C1028.27628601 1632.2333545 1023.55986354 1627.11740864 1018.77734375 1621.9921875 C1016.61922281 1619.67759738 1014.5082619 1617.33104254 1012.4375 1614.9375 C1008.21281593 1610.05814334 1003.8242902 1605.32915514 999.45263672 1600.58203125 C998.00645626 1599.00703135 996.56672628 1597.4263829 995.12890625 1595.84375 C990.50851333 1590.76450427 985.83348533 1585.7783787 980.93310547 1580.96557617 C979.21208715 1579.21564961 977.62440361 1577.4257527 976.04296875 1575.55078125 C971.35461751 1570.15799496 966.28980595 1565.14006946 961.23022461 1560.09985352 C959.56573723 1558.4407268 957.90666553 1556.77631949 956.24804688 1555.11132812 C951.24050026 1550.1009738 946.1984314 1545.19281494 940.80834961 1540.59008789 C937.54651759 1537.72194803 934.53949896 1534.59982852 931.5 1531.5 C927.07198239 1527.02400584 922.63445004 1522.66544484 917.8203125 1518.6015625 C914.80581445 1515.94932172 912.04120924 1513.04863578 909.22265625 1510.19140625 C906.5729856 1507.57898932 903.78827197 1505.16697379 900.96484375 1502.74609375 C898.26621639 1500.34790999 895.75685425 1497.78388476 893.25 1495.1875 C891.29928431 1493.29097086 889.30750988 1491.50528958 887.25390625 1489.72265625 C883.04507609 1486.06631408 878.98248292 1482.27334162 874.9375 1478.4375 C873.43904786 1477.02187522 871.94034522 1475.60651555 870.44140625 1474.19140625 C869.32403076 1473.13590576 869.32403076 1473.13590576 868.18408203 1472.05908203 C864.92489993 1468.98643036 861.65138552 1465.92928709 858.375 1462.875 C857.45932251 1462.02119751 857.45932251 1462.02119751 856.52514648 1461.15014648 C855.29778502 1460.00591891 854.0703278 1458.86179406 852.84277344 1457.71777344 C849.72706096 1454.81340764 846.61364547 1451.90658137 843.5 1449 C839.76228583 1445.51111038 836.0243238 1442.02248826 832.28515625 1438.53515625 C825.1741114 1431.90216483 818.07289608 1425.25886842 810.98071289 1418.60571289 C806.49334382 1414.3971368 801.99911412 1410.19601591 797.5 1406 C792.32594587 1401.17451373 787.15996563 1396.3405481 782 1391.5 C774.34573315 1384.32001424 766.67506765 1377.15773818 759 1370 C750.70761588 1362.26655488 742.41961451 1354.52864393 734.15649414 1346.76391602 C732.91614161 1345.59957488 731.65367287 1344.45846453 730.37312102 1343.33848611 C728 1341 728 1341 725.7531016 1337.81689097 C721.67523056 1332.48676519 717.33524358 1328.75849251 710.6710058 1327.24292871 C700.95678962 1326.07098952 691.17259433 1326.24715097 681.40373095 1326.35745019 C676.83297739 1326.39451803 672.26273943 1326.35555177 667.69201431 1326.32655434 C659.64263071 1326.28592445 651.59441168 1326.2936752 643.5450374 1326.33280356 C631.46012244 1326.39127233 619.37610283 1326.3742479 607.29112913 1326.34277668 C586.60186258 1326.2910976 565.91303274 1326.30132836 545.22376557 1326.3445638 C524.13744432 1326.38836218 503.05138565 1326.40352815 481.96502464 1326.38424657 C480.62904227 1326.38304235 479.2930599 1326.38183813 477.91659322 1326.38059742 C471.0954708 1326.37432105 464.27434892 1326.36758828 457.4532271 1326.36069977 C407.59870572 1326.31133209 357.74435976 1326.32610016 307.88984489 1326.37295341 C257.34525056 1326.42024416 206.80076266 1326.4391641 156.25614738 1326.4231987 C154.66323663 1326.42270821 153.07032587 1326.42221773 151.42914509 1326.42171238 C136.83158758 1326.41720725 122.23403019 1326.4123855 107.6364729 1326.40718646 C71.02868732 1326.39416321 34.42090134 1326.38543787 -2.18688607 1326.37956297 C-3.86455148 1326.37929072 -5.54221689 1326.37901846 -7.27072065 1326.37873795 C-90.01359684 1326.36569309 -172.75644426 1326.40144774 -255.49930954 1326.44031334 C-284.63383322 1326.45396463 -313.76835698 1326.46738426 -342.90288115 1326.47994971 C-344.71393953 1326.48073097 -346.52499791 1326.48151223 -348.39093685 1326.48231716 C-432.26164418 1326.51821342 -516.13234234 1326.52078488 -600.00305591 1326.51480304 C-605.48730811 1326.51441357 -610.97156031 1326.51403979 -616.45581251 1326.51367004 C-649.52561274 1326.5114257 -682.59541295 1326.50883401 -715.66521312 1326.50584123 C-797.8791729 1326.49841613 -880.09313256 1326.49515802 -962.30709267 1326.49472523 C-964.17879966 1326.49471331 -966.05050665 1326.49470139 -967.97893204 1326.49468911 C-1089.21874412 1326.49395046 -1210.45854661 1326.51036784 -1331.69835472 1326.54114056 C-1333.63424417 1326.54163177 -1335.57013362 1326.54212298 -1337.56468638 1326.54262908 C-1396.49542758 1326.55761866 -1455.42616842 1326.57387758 -1514.35690921 1326.59038478 C-1579.57125234 1326.6086465 -1644.78559552 1326.62669169 -1709.99993896 1326.64379883 C-1711.96094258 1326.64431397 -1713.9219462 1326.64482911 -1715.94237418 1326.64535987 C-1902.17390689 1326.69421012 -2088.40543701 1326.70811578 -2274.63697546 1326.71297837 C-2282.52454749 1326.71318686 -2290.41211951 1326.71340548 -2298.29969154 1326.71362451 C-2370.88252362 1326.71563927 -2443.46535571 1326.71724376 -2516.04818781 1326.71833299 C-2518.94323813 1326.71837649 -2518.94323813 1326.71837649 -2521.89677432 1326.71842086 C-2527.74039667 1326.71850856 -2533.58401902 1326.7185961 -2539.42764137 1326.71868363 C-2697.29834823 1326.72105052 -2855.1690549 1326.72699577 -3013.03976157 1326.73525903 C-3018.6099892 1326.73554968 -3024.18021682 1326.73583758 -3029.75044445 1326.73612466 C-3210.76068112 1326.74546489 -3391.77091559 1326.76114141 -3711.4133286 1326.81806046 C-3716.34282228 1326.81900073 -3721.27231597 1326.81993753 -3726.20180965 1326.820873 C-3727.81540511 1326.8211794 -3729.42900058 1326.8214858 -3731.09149287 1326.82180149 C-3734.02825149 1326.82235904 -3736.96501011 1326.82291615 -3739.90176873 1326.82347256 C-3997.60118127 1326.8724425 -4255.3005903 1326.93847565 -4513 1327 C-4513 984.46 -4513 641.92 -4513 289 C-4396.34149106 289 -4396.34149106 289 -4362.75115824 289.16909862 C-4357.4416878 289.19528794 -4352.13220457 289.2186779 -4346.82272339 289.24256897 C-4336.68698025 289.28860591 -4326.55125102 289.33717048 -4316.41552508 289.38683659 C-4308.11363056 289.42744082 -4299.81173058 289.46674078 -4291.50982666 289.50537109 C-4244.56626962 289.72401736 -4197.62278371 289.95053467 -4150.6796875 290.25390625 C-4149.88902547 290.25900483 -4149.09836344 290.26410341 -4148.28374195 290.26935649 C-4139.61217269 290.32529071 -4130.94060711 290.38178608 -4122.26904297 290.43850708 C-4121.49521027 290.44356768 -4120.72137757 290.44862827 -4119.92409539 290.45384222 C-4116.00176461 290.47950406 -4112.07943425 290.50522889 -4108.15710449 290.53104782 C-4059.33679287 290.85191714 -4010.51634533 291.07579908 -3961.6953125 291.25 C-3960.61215088 291.25386719 -3960.61215088 291.25386719 -3959.5071072 291.2578125 C-3934.05886223 291.34861038 -3908.61060625 291.43622074 -3883.1623488 291.5234375 C-3861.47281168 291.59777631 -3839.78327699 291.67275428 -3818.09375 291.75 C-3817.36938438 291.75257812 -3816.64501877 291.75515625 -3815.89870268 291.7578125 C-3766.66703961 291.93320573 -3717.43628902 292.18038171 -3668.20545197 292.515625 C-3656.35573388 292.59625863 -3644.50600587 292.67510304 -3632.65625 292.75 C-3631.84045849 292.75515625 -3631.02466698 292.7603125 -3630.18415451 292.765625 C-3594.42512129 292.99020629 -3558.66573366 293.12270232 -3522.90625 293.25 C-3521.82073278 293.25386719 -3521.82073278 293.25386719 -3520.71328592 293.2578125 C-3497.47553087 293.34054671 -3474.23776617 293.4204628 -3451 293.5 C-3427.03124542 293.5820392 -3403.06249292 293.66461064 -3379.09375 293.75 C-3378.00740949 293.75386719 -3378.00740949 293.75386719 -3376.89912271 293.7578125 C-3327.66731966 293.93322721 -3278.43642911 294.18038076 -3229.20545197 294.515625 C-3217.35573388 294.59625863 -3205.50600587 294.67510304 -3193.65625 294.75 C-3192.84045849 294.75515625 -3192.02466698 294.7603125 -3191.18415451 294.765625 C-3155.42512129 294.99020629 -3119.66573366 295.12270232 -3083.90625 295.25 C-3082.82073278 295.25386719 -3082.82073278 295.25386719 -3081.71328592 295.2578125 C-3058.47553087 295.34054671 -3035.23776617 295.4204628 -3012 295.5 C-2988.03124542 295.5820392 -2964.06249292 295.66461064 -2940.09375 295.75 C-2939.00740949 295.75386719 -2939.00740949 295.75386719 -2937.89912271 295.7578125 C-2888.66731966 295.93322721 -2839.43642911 296.18038076 -2790.20545197 296.515625 C-2778.35573388 296.59625863 -2766.50600587 296.67510304 -2754.65625 296.75 C-2753.84045849 296.75515625 -2753.02466698 296.7603125 -2752.18415451 296.765625 C-2716.42512129 296.99020629 -2680.66573366 297.12270232 -2644.90625 297.25 C-2643.82073278 297.25386719 -2643.82073278 297.25386719 -2642.71328592 297.2578125 C-2619.47553087 297.34054671 -2596.23776617 297.4204628 -2573 297.5 C-2549.03124542 297.5820392 -2525.06249292 297.66461064 -2501.09375 297.75 C-2500.00740949 297.75386719 -2500.00740949 297.75386719 -2498.89912271 297.7578125 C-2449.66731966 297.93322721 -2400.43642911 298.18038076 -2351.20545197 298.515625 C-2339.35573388 298.59625863 -2327.50600587 298.67510304 -2315.65625 298.75 C-2314.84045849 298.75515625 -2314.02466698 298.7603125 -2313.18415451 298.765625 C-2277.42512129 298.99020629 -2241.66573366 299.12270232 -2205.90625 299.25 C-2204.82073278 299.25386719 -2204.82073278 299.25386719 -2203.71328592 299.2578125 C-2180.47553087 299.34054671 -2157.23776617 299.4204628 -2134 299.5 C-2110.03124542 299.5820392 -2086.06249292 299.66461064 -2062.09375 299.75 C-2061.00740949 299.75386719 -2061.00740949 299.75386719 -2059.89912271 299.7578125 C-2000.60501373 299.96907958 -2000.60501373 299.96907958 -1972.96875 300.125 C-1971.772286 300.13173737 -1971.772286 300.13173737 -1970.551651 300.13861084 C-1959.50074164 300.20169701 -1948.44989827 300.27526047 -1937.39905239 300.34847907 C-1934.90902753 300.36496317 -1932.41900231 300.38139262 -1929.92897701 300.39781108 C-1921.82383931 300.45129059 -1913.71870467 300.50515405 -1905.61357796 300.56027508 C-1862.64057755 300.85178796 -1819.66756098 301.0619818 -1776.6938324 301.21154785 C-1775.45633613 301.21585693 -1774.21883986 301.220166 -1772.9438437 301.22460566 C-1761.16791527 301.26551696 -1749.39198481 301.30583073 -1737.61605286 301.34571519 C-1704.55365905 301.45772145 -1671.49128759 301.57579632 -1638.42892456 301.6965332 C-1637.62597667 301.69946324 -1636.82302877 301.70239328 -1635.99574913 301.70541211 C-1553.84869017 302.00525558 -1471.70189085 302.36126715 -1389.55510529 302.72767288 C-1386.73309935 302.74025857 -1383.91109337 302.75283788 -1381.08908739 302.76541536 C-1326.96819983 303.00664286 -1272.84732563 303.25080034 -1218.72645533 303.49586527 C-1196.83671054 303.59498025 -1174.9469643 303.69377456 -1153.05721785 303.79252147 C-1082.26555887 304.11187251 -1011.47390185 304.43165184 -940.68225307 304.75325537 C-937.3514689 304.76838695 -934.02068474 304.78351773 -930.68990057 304.79864826 C-924.01503512 304.8289698 -917.34016968 304.85929216 -910.66530424 304.88961458 C-902.85817235 304.92508058 -895.05104045 304.96054594 -887.24390854 304.99601008 C-885.00986946 305.0061584 -882.77583037 305.01630696 -880.54179129 305.02645577 C-808.25350613 305.35484662 -735.96520857 305.6803855 -663.67690183 306.00398992 C-611.25504471 306.23866217 -558.83318916 306.47365231 -506.41134548 306.71131134 C-504.79308437 306.71864766 -504.79308437 306.71864766 -503.14213111 306.72613219 C-479.46080728 306.83349862 -455.77948441 306.94107557 -432.09816242 307.04884831 C-423.62964019 307.08738586 -415.16111788 307.12590571 -406.69259552 307.16441604 C-404.58717576 307.17399041 -402.48175599 307.18356557 -400.37633623 307.19314152 C-367.06086196 307.34465807 -333.74537836 307.49398947 -300.42988905 307.64215948 C-266.98890835 307.79090166 -233.54793917 307.9420046 -200.10698352 308.09628289 C-195.47131762 308.11766908 -190.8356516 308.13902991 -186.1999855 308.1603756 C-185.29160755 308.16455937 -184.38322959 308.16874314 -183.44732503 308.17305369 C-169.19008626 308.23865306 -154.93283787 308.30182621 -140.67558351 308.3639335 C-126.59157822 308.42533823 -112.5075872 308.48944098 -98.42360639 308.55622921 C-90.9246404 308.59172097 -83.42567408 308.6261615 -75.92668784 308.65711182 C-37.94358744 308.81462258 0.02416229 309.25779545 38 310 C37.58430284 308.24307374 37.58430284 308.24307374 37.16020775 306.45065403 C36.79430209 304.90083152 36.42843189 303.35100065 36.06259155 301.80116272 C35.88020148 301.03071703 35.69781141 300.26027135 35.50989437 299.46647882 C34.32685035 294.45063874 33.23257821 289.43835102 32.2890625 284.37109375 C32.08903374 283.30667305 32.08903374 283.30667305 31.88496399 282.2207489 C31.46110509 279.9603681 31.04279677 277.69900839 30.625 275.4375 C30.32265028 273.81423385 30.01999089 272.19102535 29.71704102 270.56787109 C29.25518631 268.09261924 28.79371536 265.61730135 28.3339386 263.1416626 C27.38596671 258.04197246 26.41535433 252.94723527 25.42578125 247.85546875 C21.53155699 227.70703604 18.32507733 207.4844581 15.32421875 187.18554688 C14.84670034 183.9666125 14.3597848 180.74909695 13.875 177.53125 C5.19620799 119.20015221 -0.9171462 59.00307195 0 0 Z " fill="#FDD79E" transform="translate(4513,5030)"/>
<path d="M0 0 C258.6900088 -0.0425726 258.6900088 -0.0425726 350.05309008 -0.05026393 C351.54252446 -0.05038955 353.03195883 -0.05051521 354.52139321 -0.05064092 C355.26828977 -0.05070388 356.01518633 -0.05076684 356.78471612 -0.05083171 C359.11079272 -0.05102838 361.43686932 -0.05122669 363.76294592 -0.05142554 C416.50863056 -0.0559345 469.25431524 -0.05962759 522 -0.0625 C522.8619258 -0.062547 523.72385161 -0.06259399 524.61189637 -0.06264241 C614.37873762 -0.06752294 704.14557888 -0.06960054 2199.98483068 0.43126931 C2208.79424671 0.43611602 2217.60366275 0.44095626 2226.41307878 0.44579303 C2350.98016156 0.51419072 2475.54724358 0.58388524 4651 2 C4651.71846603 3.56392235 4651.71846603 3.56392235 4652.45144653 5.15943909 C4654.26275493 9.10217144 4656.07413237 13.04487207 4657.88552856 16.98756409 C4658.66309401 18.68004024 4659.4406418 20.37252451 4660.21817017 22.0650177 C4664.077126 30.46501142 4667.93643406 38.86484322 4671.80004883 47.26269531 C4672.32125809 48.39564026 4672.84246735 49.52858521 4673.37947083 50.69586182 C4678.96365939 62.79988437 4684.77876412 74.7670162 4690.8125 86.65283203 C4692.18856888 89.37271819 4693.54243826 92.10310913 4694.89404297 94.83520508 C4704.0787042 113.35833766 4713.65415196 131.65392082 4723.92578125 149.59765625 C4726.35804817 153.84977056 4728.72154144 158.13405946 4731.05517578 162.44091797 C4737.39528432 174.13364496 4744.20861765 185.52197258 4751.11230469 196.88916016 C4752.91727161 199.8636672 4754.71362847 202.8431987 4756.5078125 205.82421875 C4776.35465049 238.7271463 4797.71450103 270.7005366 4820 302 C4820.52142578 302.73460449 4821.04285156 303.46920898 4821.58007812 304.22607422 C4830.44551487 316.6947943 4839.68078088 328.86820081 4849 341 C4849.95077534 342.24199271 4850.90132596 343.48415751 4851.8515625 344.7265625 C4860.02252977 355.39746042 4868.28723792 365.99244728 4876.83203125 376.3671875 C4878.27314373 378.11729526 4879.70809403 379.87249612 4881.13671875 381.6328125 C4884.40823194 385.6620011 4887.69957876 389.66715974 4891.09375 393.59375 C4891.89365356 394.51933716 4891.89365356 394.51933716 4892.7097168 395.46362305 C4893.74962596 396.66320143 4894.79258335 397.86014666 4895.83911133 399.05395508 C4896.3214624 399.60978271 4896.80381348 400.16561035 4897.30078125 400.73828125 C4897.93753784 401.46591675 4897.93753784 401.46591675 4898.5871582 402.20825195 C4900.55184228 404.69983938 4902.24931796 407.35523136 4904 410 C4819.89873166 410.0805798 4735.79714155 410.11524108 4461.1875 409.5625 C4460.17265073 409.55973267 4459.15780146 409.55696535 4458.11219919 409.55411416 C4400.15645525 409.39598037 4342.20074483 409.22687506 4284.24504924 409.05198127 C4272.0622673 409.01521792 4259.87948474 408.97867427 4247.69670153 408.94233491 C4204.58404622 408.81371494 4161.4714027 408.68172107 4118.35877496 408.54415363 C4109.57942057 408.51614056 4100.8000657 408.48829362 4092.02070975 408.46077275 C4062.4422824 408.36770631 4032.86386865 408.27039293 4003.28549194 408.16233826 C4002.10552779 408.15802995 4002.10552779 408.15802995 4000.90172598 408.15363462 C3972.66060896 408.05024227 3944.41958539 407.92938746 3916.178571 407.80118081 C3832.73722389 407.42240972 3749.29586273 407.05370404 3598.60766602 406.53515625 C3597.54326199 406.53160838 3597.54326199 406.53160838 3596.45735485 406.52798883 C3559.2294686 406.40391022 3522.00157458 406.28224282 3484.77367716 406.16156982 C3461.65608713 406.08663387 3438.53849888 406.01116809 3415.42091179 405.93533325 C3413.77899707 405.92994779 3412.13708236 405.92456242 3410.49516764 405.91917712 C3403.8843713 405.89749409 3397.27357496 405.87580916 3390.66277863 405.85412142 C3372.20290227 405.7935628 3353.74302563 405.73308924 3335.28314877 405.67268372 C3334.44411792 405.66993818 3333.60508708 405.66719264 3332.74063105 405.6643639 C3306.22192013 405.57759372 3279.703208 405.49119955 3253.18449497 405.40507507 C3252.33170502 405.40230542 3251.47891507 405.39953577 3250.600283 405.39668219 C3236.7805716 405.35180026 3222.96086014 405.30693746 3209.14114867 405.26207628 C3155.68468328 405.08854599 3102.22822192 404.91383128 3048.77176429 404.73792737 C3034.26932658 404.69020741 3019.76688882 404.64250399 3005.26445103 404.59481049 C3004.42203001 404.59204004 3003.57960899 404.58926959 3002.71166005 404.58641519 C2919.9050906 404.31410113 2837.09851457 404.04377408 2289.14922182 402.42711434 C2265.02794668 402.3673026 2240.90667238 402.30716828 2216.78540039 402.24609375 C2215.86785725 402.24377189 2214.95031411 402.24145004 2214.00496663 402.23905782 C2102.34732121 401.9563511 1990.68991097 401.59499352 1708.04540164 400.6730659 C1671.47525856 400.55243484 1634.90511167 400.43302542 1598.33496143 400.31458803 C1358.20258407 399.53687627 1358.20258407 399.53687627 1065.3172387 398.39391378 C1053.54328157 398.33964346 1041.76932278 398.28574633 1029.99536133 398.23242188 C1028.41473672 398.22525935 1028.41473672 398.22525935 1026.80218031 398.21795213 C961.90218286 397.92451548 897.00186052 397.71412509 832.1015625 397.5 C831.3202981 397.49742182 830.5390337 397.49484365 829.73409462 397.49218734 C788.93513239 397.35757707 748.13616103 397.22583766 707.33718574 397.09525263 C684.78764482 397.02307076 662.2381058 396.95031795 639.68856787 396.8772106 C557.85501939 396.61192294 476.02146335 396.34895751 3 395 C2.31730109 475.40605252 2.31730109 475.40605252 1.68359375 555.8125 C1.67818085 556.53325211 1.67276795 557.25400421 1.66719103 557.99659729 C1.60497985 566.29073153 1.54357161 574.58487159 1.48259127 582.87901497 C1.42983007 590.05187888 1.37637636 597.22473761 1.32291877 604.39759636 C1.21461218 618.93172599 1.10700114 633.4658607 1 648 C0.67 648 0.34 648 0 648 C0 434.16 0 220.32 0 0 Z " fill="#4B2010" transform="translate(0,5642)"/>
<path d="M0 0 C123.36466404 -0.00837778 123.36466404 -0.00837778 161.8079666 -0.010864 C163.90117414 -0.01099939 165.99438168 -0.01113478 168.08758923 -0.01127028 C249.38654559 -0.01653307 330.68550199 -0.02132082 508.34166727 -0.03123142 C516.79723357 -0.03169641 525.25279986 -0.03216215 533.70836616 -0.0326283 C535.10911996 -0.0327055 535.10911996 -0.0327055 536.53817182 -0.03278427 C564.9257058 -0.03434943 593.31323977 -0.03596686 621.70077374 -0.03762489 C718.8703539 -0.04329884 816.03993408 -0.04861651 953.0881544 -0.0545579 C956.1793896 -0.05468766 959.27062479 -0.05481777 962.36185999 -0.05494788 C1067.24522286 -0.05935583 1172.1285858 -0.06279574 1729.94493306 -0.03880275 C1776.25670546 -0.03502925 1822.56847787 -0.03150017 1868.88025028 -0.02802554 C1879.67924517 -0.02721519 1890.47824005 -0.02640103 1901.27723494 -0.02558686 C1942.36986633 -0.0224893 1983.46249772 -0.0194153 2024.55512911 -0.01636601 C2038.62963415 -0.01532151 2052.7041392 -0.01427424 2066.77864424 -0.01322653 C2077.61432437 -0.01242001 2088.4500045 -0.01161497 2099.28568463 -0.01081305 C2146.0705755 -0.00734945 2192.85546636 -0.00376632 2239.64035719 0.00018252 C2347.49344909 0.00928213 2455.34654099 0.01746062 2605.2773123 0.02284851 C2608.50879706 0.0229492 2611.74028182 0.0230513 2614.97176658 0.02315351 C2719.54261836 0.02643918 2824.11347076 0.02672771 3459.13671385 -0.20586453 C3466.29721654 -0.20983011 3473.45771923 -0.21379137 3480.61822192 -0.21775324 C3483.29530546 -0.21923449 3485.972389 -0.22071593 3488.64947254 -0.22219736 C3502.8536165 -0.23005693 3517.05776048 -0.23790225 3531.26190446 -0.24573535 C3540.07452777 -0.25059578 3548.88715107 -0.25546579 3557.69977436 -0.26035709 C3642.45567985 -0.30738091 3727.21158279 -0.34853668 3869.2353586 -0.38697049 C3874.18052542 -0.38819596 3879.12569225 -0.38943692 3884.07085907 -0.39067948 C3947.77192796 -0.40666559 4011.4729971 -0.42084192 4075.17406717 -0.4311917 C4108.77484085 -0.43665183 4142.37561438 -0.44273101 4175.97638779 -0.44969353 C4179.07099448 -0.45033448 4182.16560118 -0.45096805 4185.26020787 -0.45159491 C4257.46364738 -0.46623559 4329.66704997 -0.49391683 4401.87046051 -0.562397 C4402.6312778 -0.5631179 4403.39209509 -0.56383881 4404.17596745 -0.56458155 C4430.14153568 -0.58921087 4456.10710257 -0.61518621 4482.07266919 -0.64145405 C4503.86418321 -0.66349792 4525.65569753 -0.68515788 4547.44721317 -0.70553684 C4548.18454017 -0.70622669 4548.92186717 -0.70691654 4549.68153741 -0.70762729 C4595.32605719 -0.75022788 4640.97055663 -0.77447194 4686.61509609 -0.77889156 C4687.31106263 -0.77896152 4688.00702916 -0.77903147 4688.72408559 -0.77910354 C4719.03106241 -0.78213563 4749.33803769 -0.78124159 4779.64501413 -0.77563925 C4792.35214057 -0.77330875 4805.05926708 -0.77167122 4817.76639366 -0.77028084 C4819.07725662 -0.77012224 4820.38811957 -0.76996365 4821.73870565 -0.76980025 C4863.06123415 -0.76510011 4904.38350872 -0.80952974 4945.70596581 -0.88361534 C4986.04302279 -0.95576671 5026.37977629 -0.98015826 5066.71688183 -0.93367865 C5072.22577617 -0.92733919 5077.73467097 -0.92156056 5083.24356627 -0.91612041 C5084.86032081 -0.91449194 5084.86032081 -0.91449194 5086.50973705 -0.91283058 C5103.44552846 -0.89722869 5120.38074997 -0.93483686 5137.31642132 -0.99576131 C5153.86604696 -1.0542157 5170.41486354 -1.05561407 5186.96449576 -0.99648986 C5195.7502429 -0.96663786 5204.53415788 -0.96110062 5213.31973562 -1.03008568 C5278.43584945 -1.51709578 5278.43584945 -1.51709578 5305.5813852 14.99734265 C5311.2910239 18.34210378 5317.31960632 20.90777908 5323.375 23.5625 C5336.55448597 29.62335778 5349.51881866 36.15458638 5362.5 42.625 C5363.9345755 43.3382695 5363.9345755 43.3382695 5365.39813232 44.06594849 C5378.65542424 50.66636499 5391.72461871 57.55644778 5404.68566895 64.72094727 C5406.66156189 65.81295667 5408.63980166 66.90041582 5410.62011719 67.984375 C5426.27636928 76.57120759 5441.5550204 85.70268815 5456.7734375 95.03271484 C5460.60026502 97.36599088 5464.44943249 99.65973194 5468.30371094 101.94726562 C5476.58834074 106.86838088 5484.67238216 111.99352714 5492.64160156 117.40771484 C5495.54088804 119.36518341 5498.45335173 121.30257837 5501.3671875 123.23828125 C5519.82323999 135.50082771 5538.09910054 147.93545757 5556 161 C5556.77778809 161.5662207 5557.55557617 162.13244141 5558.35693359 162.71582031 C5574.40874424 174.41207896 5590.08323981 186.53592045 5605.45703125 199.109375 C5608.34756054 201.47317203 5611.2606944 203.80617817 5614.1875 206.125 C5618.56975113 209.61756591 5622.84387506 213.22862071 5627.10961914 216.86157227 C5630.57691708 219.8107389 5634.08313094 222.70273126 5637.625 225.5625 C5642.38520053 229.43579272 5646.92804784 233.50759992 5651.4453125 237.66015625 C5653.62697815 239.65834848 5655.83011309 241.62148889 5658.0625 243.5625 C5661.89918368 246.89908642 5665.67952441 250.29544932 5669.453125 253.703125 C5671.0636464 255.15555841 5672.67777857 256.60400676 5674.296875 258.046875 C5689.80884928 271.89313392 5704.60524757 286.44308854 5719.28759766 301.15722656 C5722.00320048 303.87863616 5724.72341986 306.595381 5727.44487762 309.31093407 C5729.55522619 311.41768816 5731.66321149 313.52679383 5733.77046204 315.63664627 C5734.77450669 316.64135768 5735.77929382 317.64532768 5736.78483582 318.6485405 C5738.17211815 320.0333031 5739.55588422 321.42158575 5740.93945312 322.81005859 C5741.7261438 323.59754486 5742.51283447 324.38503113 5743.32336426 325.19638062 C5745 327 5745 327 5745 328 C3849.15 328 1953.3 328 0 328 C0 219.76 0 111.52 0 0 Z " fill="#FDD79E" transform="translate(0,6742)"/>
<path d="M0 0 C2.7838806 3.32966573 5.0429693 6.63187865 7.109375 10.4453125 C7.98166748 12.04016479 7.98166748 12.04016479 8.87158203 13.66723633 C9.49145996 14.80829834 10.11133789 15.94936035 10.75 17.125 C17.923259 30.21259342 25.46335474 43.04951541 33.12597656 55.85742188 C35.41179628 59.69054739 37.67120774 63.53876893 39.92944336 67.38818359 C51.07940593 86.37414505 62.69584045 105.08072857 74.51367188 123.65722656 C76.04223426 126.0665703 77.56083675 128.4819803 79.078125 130.8984375 C88.93936642 146.55709147 99.22289735 161.92797783 109.52294922 177.29980469 C111.80296185 180.70343773 114.07412132 184.11287186 116.34375 187.5234375 C119.24046156 191.87033589 122.15979318 196.19956232 125.125 200.5 C125.57891113 201.15887207 126.03282227 201.81774414 126.50048828 202.49658203 C135.85258186 216.04847292 145.31953057 229.51192908 154.98828125 242.83984375 C157.25834912 245.96986169 159.51001679 249.11211863 161.74902344 252.2644043 C171.13191625 265.47331236 180.75906411 278.5022168 190.68994141 291.30419922 C192.67500293 293.87375519 194.64221901 296.45684324 196.61108398 299.03881836 C207.7385331 313.62733015 218.99573411 328.09001957 230.61035156 342.29443359 C232.50612176 344.62118176 234.37963521 346.96530307 236.25 349.3125 C239.7058094 353.6449403 243.20744871 357.93830928 246.72265625 362.22265625 C248.21300202 364.04021344 249.70011494 365.86042748 251.18359375 367.68359375 C259.92831001 378.42353938 268.92976339 388.94334361 277.953125 399.44921875 C280.0096645 401.84388299 282.06137314 404.24256169 284.109375 406.64453125 C289.32678525 412.75896703 294.58708798 418.81951889 299.98828125 424.7734375 C301.84734669 426.83104391 303.67928358 428.90846763 305.5 431 C309.61082427 435.71702877 313.8074226 440.35569709 318 445 C319.50028679 446.66640851 321.00028872 448.33307353 322.5 450 C323.24894531 450.83144531 323.99789062 451.66289062 324.76953125 452.51953125 C326.20733191 454.11848645 327.64243873 455.71987014 329.07421875 457.32421875 C334.18389106 463.03836246 339.38888601 468.65742393 344.62890625 474.25170898 C347.49306171 477.31027285 350.3505864 480.37378884 353.1796875 483.46484375 C358.75568312 489.55686982 364.41866834 495.50285641 370.33203125 501.26953125 C372.39179205 503.37754413 374.31691642 505.49931734 376.23487854 507.73069763 C379.65352865 511.6512381 383.22659772 515.36845788 386.90991211 519.03930664 C387.56132675 519.6924736 388.21274139 520.34564056 388.88389587 521.01860046 C391.01255749 523.15162075 393.1448057 525.28101207 395.27734375 527.41015625 C396.77289671 528.90638397 398.26830129 530.40276001 399.76356506 531.89927673 C402.88787399 535.02505453 406.01397034 538.14903055 409.14135742 541.27172852 C413.13346689 545.25814122 417.12106947 549.24902715 421.107337 553.24128056 C424.19144929 556.32902037 427.27795669 559.41435722 430.36517525 562.49899101 C431.83579292 563.96894548 433.30567887 565.43963241 434.77479362 566.91108894 C436.83433826 568.97319624 438.89710125 571.03203199 440.96069336 573.09008789 C441.55678406 573.68820282 442.15287476 574.28631775 442.76702881 574.90255737 C446.4333956 578.55088276 450.22283672 582.00303766 454.14957523 585.36987972 C457.24741818 588.09890534 460.11334739 591.05125127 463 594 C467.27099137 598.32090468 471.57162998 602.50108241 476.2109375 606.4296875 C478.86140923 608.75608408 481.30141978 611.27647049 483.75 613.8125 C485.69436124 615.7028512 487.67912117 617.48168855 489.7265625 619.2578125 C494.05386506 623.01641819 498.21944886 626.92848538 502.375 630.875 C507.72745463 635.93584971 513.10517273 640.95486429 518.60546875 645.85546875 C521.46895504 648.41999399 524.29691635 651.02158335 527.125 653.625 C530.99694935 657.18588108 534.90905767 660.69044743 538.88671875 664.1328125 C541.04395786 666.03883892 543.15807043 667.98782688 545.26904297 669.94482422 C549.5362941 673.89888261 553.83174337 677.73504181 558.375 681.375 C563.41336194 685.42601724 568.1030476 689.77223557 572.8059082 694.20043945 C577.12209157 698.24254193 581.60494499 701.99588108 586.22265625 705.69140625 C589.42443058 708.35279673 592.46231932 711.15465085 595.5 714 C600.28311685 718.47920355 605.20815468 722.68451839 610.3203125 726.7890625 C613.13253315 729.1093495 615.81797263 731.53071134 618.5 734 C622.07792463 737.29331699 625.71539666 740.44651321 629.5 743.5 C633.28460334 746.55348679 636.92207537 749.70668301 640.5 753 C644.9698512 757.11378909 649.59044893 760.97087297 654.31640625 764.78515625 C656.94708557 766.95632827 659.47942424 769.20241357 662 771.5 C665.41739372 774.61458668 668.9052235 777.5918662 672.5 780.5 C676.0947765 783.4081338 679.58260628 786.38541332 683 789.5 C686.31989486 792.52282421 689.69764112 795.42512161 693.1875 798.25 C699.62711993 803.46518515 705.85455403 808.91331752 712.10351562 814.35351562 C715.07855189 816.93637409 718.0694406 819.50056914 721.0625 822.0625 C721.63589111 822.55339111 722.20928223 823.04428223 722.80004883 823.55004883 C723.95530518 824.53885203 725.11065976 825.52754049 726.26611328 826.51611328 C729.75996663 829.5062063 733.25086021 832.49975645 736.74145508 835.49365234 C739.70463683 838.03470833 742.67030706 840.57275647 745.640625 843.10546875 C750.87776795 847.57540939 756.09432474 852.0529519 761.1875 856.6875 C764.5008308 859.69814479 767.88941929 862.56565178 771.375 865.375 C775.93101359 869.05831239 780.24077491 872.93152306 784.52563477 876.92016602 C787.69315856 879.85120855 790.94079603 882.62013194 794.3125 885.3125 C800.3488887 890.16785613 805.92950952 895.46764045 811.5625 900.77734375 C814.63772066 903.67317654 817.77879526 906.47521596 820.98046875 909.23046875 C823.69486149 911.60884382 826.34574017 914.05507182 829 916.5 C832.2785105 919.51930769 835.56581086 922.5220225 838.9375 925.4375 C843.60444522 929.48605082 848.1171033 933.69972597 852.6484375 937.8984375 C855.71209609 940.73711141 858.79171313 943.55765701 861.875 946.375 C881.24453015 964.12612113 881.24453015 964.12612113 889.13417053 972.16661072 C890.81535453 973.81856487 892.53824158 975.33438237 894.34155273 976.84985352 C900.90334336 982.55995135 906.95569498 988.81209852 913.09765625 994.96484375 C914.45936258 996.32587513 915.82121722 997.68675815 917.18321228 999.04750061 C920.02651919 1001.88933955 922.86802599 1004.73296282 925.70825195 1007.57788086 C929.33146031 1011.20678592 932.95914043 1014.8311822 936.58818913 1018.45424557 C939.39799146 1021.2604179 942.2053874 1024.06898799 945.01208305 1026.87826729 C946.3480657 1028.21491246 947.68477894 1029.55082784 949.02226448 1030.88596916 C961.62890496 1043.47535447 961.62890496 1043.47535447 966.74607849 1049.52589417 C968.39305516 1051.4620743 970.17219646 1053.23522417 972 1055 C975.12410984 1058.08245505 978.02701088 1061.27509772 980.88671875 1064.6015625 C983.69736974 1067.79146953 986.59879414 1070.89255891 989.5 1074 C994.09091091 1078.926108 998.62250425 1083.88212442 1003 1089 C1003.87622321 1090.02220303 1004.75253345 1091.04433146 1005.62890625 1092.06640625 C1007.14702214 1093.83733078 1008.66454492 1095.6087485 1010.18041992 1097.3815918 C1012.83104297 1100.47963251 1015.49051534 1103.56912917 1018.171875 1106.640625 C1025.69377565 1115.2584622 1033.03154923 1124.01017814 1040.26367188 1132.87255859 C1041.9803268 1134.97589535 1043.70092147 1137.07596109 1045.421875 1139.17578125 C1051.58586467 1146.7116427 1057.63779828 1154.31330311 1063.52734375 1162.06640625 C1065.25158513 1164.3303306 1066.98517594 1166.58696445 1068.71875 1168.84375 C1076.79489858 1179.37428985 1084.74366044 1189.97930246 1092.43310547 1200.79589844 C1093.45305512 1202.23062973 1094.47539506 1203.66366574 1095.50048828 1205.09472656 C1119.27478334 1238.31233532 1141.44426865 1272.70878499 1162 1308 C1162.59280762 1309.01288086 1163.18561523 1310.02576172 1163.79638672 1311.06933594 C1173.22704696 1327.19152227 1182.2621809 1343.49259236 1191 1360 C1191.4846875 1360.91152832 1191.969375 1361.82305664 1192.46875 1362.76220703 C1198.98048176 1375.0237075 1205.26045982 1387.40271538 1211.49185181 1399.80847168 C1212.31432796 1401.44540412 1213.13798872 1403.08174203 1213.96298218 1404.71740723 C1219.33952636 1415.3868086 1224.38220202 1426.15573753 1229.16233826 1437.10501099 C1230.38013415 1439.85995338 1231.65615577 1442.58665464 1232.9375 1445.3125 C1239.51890339 1459.53397756 1245.46879465 1474.02566997 1251.3125 1488.5625 C1251.56702942 1489.19276093 1251.82155884 1489.82302185 1252.08380127 1490.47238159 C1255.00557239 1497.71749009 1257.71102022 1504.97627999 1260.12280273 1512.40649414 C1261.23300858 1515.68890903 1262.6112326 1518.82674115 1264 1522 C1265.13422568 1525.02412564 1266.19430423 1528.07269505 1267.25 1531.125 C1267.55156006 1531.99390869 1267.85312012 1532.86281738 1268.16381836 1533.75805664 C1269.11357043 1536.50389158 1270.05755508 1539.25164923 1271 1542 C1271.44980225 1543.30638428 1271.44980225 1543.30638428 1271.90869141 1544.63916016 C1276.08066572 1556.79428838 1279.8248427 1569.02181468 1283.27050781 1581.40136719 C1283.98641605 1583.9516106 1284.72006727 1586.49596857 1285.4609375 1589.0390625 C1295.48091679 1623.47733904 1303.55027279 1658.22709231 1309.82125854 1693.52540588 C1310.67613333 1698.30448282 1311.60944803 1703.06066498 1312.5859375 1707.81640625 C1313.94058357 1714.51897102 1314.9930035 1721.22019889 1315.875 1728 C1316.03790527 1729.24201172 1316.20081055 1730.48402344 1316.36865234 1731.76367188 C1320.23081949 1761.71360752 1323.58351659 1791.82678524 1325 1822 C1325.06195053 1823.26754623 1325.06195053 1823.26754623 1325.12515259 1824.56069946 C1325.94750062 1841.68885477 1326.19864195 1858.79099997 1326.1875 1875.9375 C1326.18789276 1877.23328979 1326.18828552 1878.52907959 1326.18869019 1879.86413574 C1326.18062199 1902.24428359 1325.53759554 1924.53550641 1324.13296509 1946.86999512 C1323.99727694 1949.04362138 1323.86755232 1951.21754162 1323.73901367 1953.39160156 C1323.19144924 1962.5635342 1322.37205317 1971.65915205 1321.35205078 1980.7890625 C1321.00965961 1983.91189796 1320.6811602 1987.03589434 1320.35566711 1990.16052246 C1318.50267978 2007.90040823 1316.4171097 2025.47822475 1313 2043 C1310.03361098 2041.51680549 1309.59640639 2039.36402165 1308.1875 2036.375 C1303.50321482 2026.70466949 1298.08847887 2017.44920371 1292.76904297 2008.11914062 C1290.40728547 2003.95493778 1288.0808119 1999.77150152 1285.75366211 1995.58789062 C1278.70884057 1982.93212324 1271.43324124 1970.43092977 1264 1958 C1263.02719057 1956.3659766 1262.05453115 1954.73186389 1261.08203125 1953.09765625 C1252.86184 1939.31257894 1244.4671446 1925.63456142 1236 1912 C1235.4627832 1911.13342773 1234.92556641 1910.26685547 1234.37207031 1909.37402344 C1223.0440816 1891.16339034 1211.00324778 1873.40829999 1199.07533264 1855.58825684 C1196.28006818 1851.41203228 1193.4882127 1847.23363583 1190.70581055 1843.04882812 C1185.56328868 1835.3145068 1180.41348692 1827.59252636 1175.0625 1820 C1174.48532227 1819.17806152 1173.90814453 1818.35612305 1173.31347656 1817.50927734 C1168.27098659 1810.34630642 1163.14988192 1803.24118778 1158.00390625 1796.15234375 C1156.16245434 1793.61375005 1154.33367116 1791.06760673 1152.52734375 1788.50390625 C1146.92724442 1780.55917299 1141.08705487 1772.81804072 1135.17358398 1765.10375977 C1130.62573904 1759.16257343 1126.16244509 1753.16723384 1121.75 1747.125 C1116.17072728 1739.50012482 1110.36527309 1732.0967433 1104.41601562 1724.75878906 C1102.10125566 1721.88369755 1099.83383307 1718.97192646 1097.5625 1716.0625 C1092.45601487 1709.53537881 1087.23376262 1703.10562863 1081.99609375 1696.68359375 C1079.60003947 1693.74396592 1077.2306009 1690.78469991 1074.875 1687.8125 C1071.38077638 1683.42816888 1067.76689555 1679.15306978 1064.1340332 1674.88378906 C1061.2365054 1671.47493282 1058.38236877 1668.03625139 1055.5625 1664.5625 C1050.66751395 1658.55264169 1045.61682642 1652.68248717 1040.55712891 1646.81152344 C1039.00548064 1645.00637604 1037.46066415 1643.19561441 1035.91796875 1641.3828125 C1030.45564703 1634.96964865 1024.9206709 1628.65069588 1019.2265625 1622.44140625 C1017.30866793 1620.33845167 1015.42623955 1618.21330844 1013.5625 1616.0625 C1010.17632874 1612.16641118 1006.68892028 1608.36580764 1003.19213867 1604.56933594 C1000.22271827 1601.34327386 997.2893553 1598.0886022 994.375 1594.8125 C990.83209324 1590.85836299 987.14768155 1587.09334648 983.3359375 1583.3984375 C981.51639501 1581.5302116 979.84393767 1579.652435 978.16015625 1577.66796875 C972.78150331 1571.47358227 966.90084253 1565.75219986 961.09399414 1559.96362305 C959.0673702 1557.94235732 957.04614453 1555.91580426 955.02539062 1553.88867188 C949.38544542 1548.24611997 943.77671392 1542.63557954 937.68920898 1537.47094727 C934.63342642 1534.8100006 931.83293173 1531.89386361 929 1529 C924.75042689 1524.70082317 920.47208324 1520.54459924 915.85546875 1516.63671875 C912.83312884 1513.97069681 910.05565761 1511.06329552 907.2265625 1508.1953125 C904.55366826 1505.55993257 901.74631697 1503.12233511 898.8984375 1500.6796875 C896.41040974 1498.47834607 894.10805923 1496.11911485 891.78125 1493.75 C889.91610326 1491.91757513 887.98072254 1490.20646865 886 1488.5 C882.77043633 1485.71760668 879.76677347 1482.78980571 876.78125 1479.75 C874.91610326 1477.91757513 872.98072254 1476.20646865 871 1474.5 C867.77043633 1471.71760668 864.76677347 1468.78980571 861.78125 1465.75 C859.91610326 1463.91757513 857.98072254 1462.20646865 856 1460.5 C852.77043633 1457.71760668 849.76677347 1454.78980571 846.78125 1451.75 C844.91610326 1449.91757513 842.98072254 1448.20646865 841 1446.5 C837.77043633 1443.71760668 834.76677347 1440.78980571 831.78125 1437.75 C829.91610326 1435.91757513 827.98072254 1434.20646865 826 1432.5 C823.39352391 1430.2544206 820.91065479 1427.95448488 818.5 1425.5 C816.10946833 1423.06610268 813.64953738 1420.78644441 811.0625 1418.5625 C807.53365237 1415.52320349 804.26994973 1412.28983153 801.00390625 1408.97265625 C798.41753849 1406.42662171 795.6846472 1404.07978443 792.93359375 1401.71484375 C790.43430862 1399.49830603 788.11718116 1397.12837719 785.77734375 1394.74609375 C783.93406426 1392.93522357 782.02177201 1391.24678646 780.0625 1389.5625 C776.53365237 1386.52320349 773.26994973 1383.28983153 770.00390625 1379.97265625 C767.41753849 1377.42662171 764.6846472 1375.07978443 761.93359375 1372.71484375 C759.43568444 1370.4995262 757.11975011 1368.1310183 754.78125 1365.75 C752.91610326 1363.91757513 750.98072254 1362.20646865 749 1360.5 C746.39352391 1358.2544206 743.91065479 1355.95448488 741.5 1353.5 C739.10946833 1351.06610268 736.64953738 1348.78644441 734.0625 1346.5625 C730.53365237 1343.52320349 727.26994973 1340.28983153 724.00390625 1336.97265625 C721.41753849 1334.42662171 718.6846472 1332.07978443 715.93359375 1329.71484375 C713.43430862 1327.49830603 711.11718116 1325.12837719 708.77734375 1322.74609375 C706.93406426 1320.93522357 705.02177201 1319.24678646 703.0625 1317.5625 C700.25423653 1315.14382221 697.60029407 1312.64100317 695 1310 C692.41990785 1307.37959391 689.78896393 1304.89676588 687 1302.5 C683.48998489 1299.48358077 680.24948724 1296.26904868 677.00390625 1292.97265625 C674.41753849 1290.42662171 671.6846472 1288.07978443 668.93359375 1285.71484375 C666.43430862 1283.49830603 664.11718116 1281.12837719 661.77734375 1278.74609375 C659.93406426 1276.93522357 658.02177201 1275.24678646 656.0625 1273.5625 C653.25423653 1271.14382221 650.60029407 1268.64100317 648 1266 C645.41990785 1263.37959391 642.78896393 1260.89676588 640 1258.5 C636.48998489 1255.48358077 633.24948724 1252.26904868 630.00390625 1248.97265625 C627.41753849 1246.42662171 624.6846472 1244.07978443 621.93359375 1241.71484375 C619.43430862 1239.49830603 617.11718116 1237.12837719 614.77734375 1234.74609375 C612.93406426 1232.93522357 611.02177201 1231.24678646 609.0625 1229.5625 C606.25423653 1227.14382221 603.60029407 1224.64100317 601 1222 C598.41990785 1219.37959391 595.78896393 1216.89676588 593 1214.5 C589.48858352 1211.48237647 586.24692598 1208.26640919 583 1204.96875 C581.06108998 1203.06013545 579.06300449 1201.27289448 577 1199.5 C574.21103607 1197.10323412 571.58009215 1194.62040609 569 1192 C566.44009866 1189.40017817 563.8322046 1186.93731602 561.0625 1184.5625 C557.25175937 1181.28869347 553.74921835 1177.76636029 550.22265625 1174.19140625 C547.5729856 1171.57898932 544.78827197 1169.16697379 541.96484375 1166.74609375 C539.18300852 1164.27396582 536.60624049 1161.61569453 533.99609375 1158.96484375 C532.07892823 1157.07769256 530.10424678 1155.31314625 528.0625 1153.5625 C525.07198284 1150.99334729 522.26883316 1148.30682744 519.5 1145.5 C516.7514401 1142.71378859 513.97140209 1140.04691608 511 1137.5 C508.02859791 1134.95308392 505.2485599 1132.28621141 502.5 1129.5 C499.77170593 1126.73439592 497.01483166 1124.08712969 494.0625 1121.5625 C490.8896408 1118.84380752 487.93661618 1115.97248325 485 1113 C482.10408042 1110.06881809 479.19757429 1107.23596826 476.0625 1104.5625 C472.71074881 1101.69827626 469.59443922 1098.63665531 466.5 1095.5 C463.44662382 1092.40508128 460.37676292 1089.38065703 457.0625 1086.5625 C453.00345709 1083.103562 449.28271102 1079.34164971 445.56274414 1075.52563477 C442.86802103 1072.78332273 440.10400064 1070.19395798 437.1875 1067.6875 C431.73832267 1062.97385802 426.75912186 1057.80620585 421.7109375 1052.671875 C417.56205407 1048.48021958 413.3375864 1044.47664107 408.86669922 1040.63085938 C405.98679032 1038.11479981 403.26377083 1035.45547057 400.5625 1032.75 C400.00175781 1032.18845215 399.44101562 1031.6269043 398.86328125 1031.04833984 C394.75579695 1026.88079771 391.0028009 1022.52139161 387.3671875 1017.93359375 C384.54391829 1014.43478983 381.59026828 1011.06584477 378.625 1007.6875 C373.88930086 1002.27085065 369.35510712 996.73999143 364.94921875 991.05273438 C362.08550663 987.36071017 359.14368697 983.75548106 356.125 980.1875 C351.02305821 974.11184377 346.22815722 967.82334403 341.43359375 961.50390625 C338.52637623 957.67633432 335.5737514 953.88643598 332.6081543 950.10400391 C326.63768458 942.48485656 320.87806242 934.76512143 315.31005859 926.84863281 C313.35902124 924.09551041 311.37414138 921.36726944 309.39135742 918.63696289 C306.58266638 914.76629169 303.78989042 910.88423591 301 907 C300.48018555 906.27731934 299.96037109 905.55463867 299.42480469 904.81005859 C245.54301118 829.62891035 198.79488715 747.86518262 150.50009155 643.61694336 C148.63901169 639.42083446 146.74422541 635.2416988 144.828125 631.0703125 C123.04024103 583.46778567 104.65784241 534.34607462 87.67041016 484.85546875 C86.12170481 480.34641319 84.55392978 475.84421524 82.98046875 471.34375 C82.51984845 470.02260195 82.05939383 468.70139613 81.59912109 467.38012695 C80.78262028 465.03675413 79.96416696 462.69405999 79.14306641 460.35229492 C76.84765157 453.72617007 74.83742152 447.05767874 72.94458008 440.3059082 C71.64209557 435.74738073 70.16721674 431.253296 68.6875 426.75 C64.99532139 415.32597679 61.8936102 403.76733043 58.83642578 392.16015625 C57.54118758 387.26653008 56.20966494 382.38299412 54.875 377.5 C54.50665039 376.14757202 54.50665039 376.14757202 54.13085938 374.76782227 C53.00203262 370.63043011 51.86220767 366.49681715 50.69140625 362.37109375 C45.03792927 342.42664057 40.6623435 322.19132927 36.29060364 301.93493652 C35.40678007 297.84831958 34.49893687 293.76805412 33.5703125 289.69140625 C21.14763131 234.52836725 12.91023982 178.20996705 7 122 C6.9235022 121.27756104 6.84700439 120.55512207 6.76818848 119.81079102 C4.80810162 101.21765687 3.52403852 82.59583188 2.375 63.9375 C2.31237976 62.92258484 2.24975952 61.90766968 2.1852417 60.86199951 C1.4980948 49.61136691 0.89749129 38.35913569 0.41796875 27.09765625 C0.37606415 26.12505356 0.33415955 25.15245087 0.29098511 24.15037537 C-0.03661774 16.09650702 -0.1066719 8.05965457 0 0 Z " fill="#FDD79E" transform="translate(4584,3601)"/>
<path d="M0 0 C2.91726997 2.56046965 4.50133523 5.46520911 6.3359375 8.86328125 C6.65114853 9.44243286 6.96635956 10.02158447 7.29112244 10.61828613 C7.96903413 11.86401785 8.64484411 13.11089516 9.3187561 14.35879517 C11.11663219 17.68427635 12.93467564 20.99866482 14.75390625 24.3125 C15.11862534 24.97707718 15.48334442 25.64165436 15.8591156 26.32637024 C20.43006046 34.6313734 25.27486466 42.76765931 30.14794922 50.89794922 C32.27917019 54.46758982 34.39235737 58.04760821 36.50390625 61.62890625 C46.1068418 77.90274955 55.89364056 94.03218808 66 110 C67.03430309 111.64164433 68.06817363 113.28356128 69.1015625 114.92578125 C71.55423474 118.82106012 74.01544723 122.71084987 76.47998047 126.59863281 C78.06479343 129.10236238 79.64381021 131.60969164 81.22265625 134.1171875 C89.47674598 147.19425515 97.99295191 160.08679267 106.6053772 172.92918396 C109.19891178 176.79809701 111.77867351 180.67590222 114.3515625 184.55859375 C120.58626506 193.96286939 126.83665816 203.33108262 133.45703125 212.46875 C136.63321581 216.85533568 139.7159417 221.30705714 142.8125 225.75 C149.44091154 235.2408024 156.17686047 244.64834486 163 254 C163.55123535 254.75603516 164.1024707 255.51207031 164.67041016 256.29101562 C172.77315161 267.38758799 181.03990124 278.35173088 189.38671875 289.265625 C192.15682284 292.88899788 194.90140257 296.52908713 197.625 300.1875 C203.6282102 308.21851212 209.8249554 316.10094923 216 324 C216.5141748 324.65887207 217.02834961 325.31774414 217.55810547 325.99658203 C222.81925196 332.73693421 228.12649733 339.43038962 233.5625 346.03125 C235.40447914 348.27468614 237.23717834 350.52432519 239.0625 352.78125 C244.67753284 359.7226356 250.32964209 366.62269865 256.11889648 373.41967773 C258.93304273 376.72672316 261.70039765 380.06649064 264.4375 383.4375 C269.33248605 389.44735831 274.38317358 395.31751283 279.44287109 401.18847656 C280.99451936 402.99362396 282.53933585 404.80438559 284.08203125 406.6171875 C289.54196051 413.02754242 295.07483798 419.34347375 300.765625 425.55078125 C303.29402372 428.32229524 305.76184 431.14127003 308.22265625 433.97265625 C311.05554282 437.20401478 313.94443867 440.38468081 316.82421875 443.57421875 C318.67443563 445.63702788 320.49944809 447.7171237 322.3125 449.8125 C326.90453235 455.08169841 331.68045046 460.18341539 336.43261719 465.30761719 C337.92937844 466.92374631 339.42253631 468.54310218 340.9140625 470.1640625 C356.4741568 487.17849415 356.4741568 487.17849415 372.65625 503.59375 C374.45163349 505.43701039 376.09075768 507.28085559 377.74633789 509.24194336 C383.63301811 515.98561819 390.07060943 522.21415706 396.40234375 528.53515625 C397.80821566 529.94170304 399.2139392 531.34839815 400.61952209 532.75523376 C403.55551768 535.69269764 406.49329869 538.62836082 409.43237305 541.56274414 C413.18234623 545.3070206 416.92781131 549.05576934 420.67194271 552.80588627 C423.57076172 555.7083344 426.47197755 558.60837735 429.37390327 561.50771904 C430.75520595 562.88835895 432.13577815 564.26973012 433.51557732 565.65187263 C442.70518284 574.91923636 442.70518284 574.91923636 452.4131012 583.63328552 C455.44517894 586.24465843 458.20253871 589.14236974 461 592 C465.24957311 596.29917683 469.52791676 600.45540076 474.14453125 604.36328125 C477.08754654 606.95933052 479.79973621 609.77818963 482.53125 612.59375 C484.56002144 614.57116014 486.6195196 616.4341262 488.7578125 618.2890625 C493.07592288 622.03598362 497.23004246 625.9385461 501.375 629.875 C506.73013618 634.93838517 512.11125398 639.95909735 517.61328125 644.86328125 C520.43051851 647.38542328 523.21634346 649.94096633 526 652.5 C533.2186405 659.12945767 540.48642044 665.69790673 547.8828125 672.12890625 C550.39018296 674.34482959 552.84901589 676.61040908 555.3125 678.875 C558.89261212 682.14529473 562.52916237 685.28026617 566.3125 688.3125 C571.36756423 692.3868385 576.08026106 696.75101065 580.8034668 701.19799805 C585.14276593 705.26152197 589.64732329 709.0416987 594.2890625 712.7578125 C597.28904627 715.23906709 600.15150408 717.84867605 603 720.5 C607.60996248 724.78963052 612.37783795 728.80411347 617.28515625 732.75390625 C620.10673495 735.0883059 622.80590712 737.51990598 625.5 740 C629.9698512 744.11378909 634.59044893 747.97087297 639.31640625 751.78515625 C641.94708557 753.95632827 644.47942424 756.20241357 647 758.5 C650.41739372 761.61458668 653.9052235 764.5918662 657.5 767.5 C661.96276213 771.11032442 666.22719533 774.88427929 670.46875 778.75 C673.0884481 781.07862053 675.7751531 783.29562947 678.5 785.5 C682.96276213 789.11032442 687.22719533 792.88427929 691.46875 796.75 C694.0884481 799.07862053 696.7751531 801.29562947 699.5 803.5 C703.96276213 807.11032442 708.22719533 810.88427929 712.46875 814.75 C715.0884481 817.07862053 717.7751531 819.29562947 720.5 821.5 C724.96276213 825.11032442 729.22719533 828.88427929 733.46875 832.75 C736.0884481 835.07862053 738.7751531 837.29562947 741.5 839.5 C745.96564707 843.1126583 750.23284615 846.88893545 754.4765625 850.7578125 C757.05082358 853.04515904 759.69289489 855.21548271 762.375 857.375 C766.93021138 861.05766385 771.23912556 864.93026302 775.5234375 868.91796875 C778.71288511 871.86902981 781.98346793 874.65978518 785.375 877.375 C791.10027069 881.98173011 796.42180063 886.96812867 801.77734375 891.9921875 C804.82061941 894.8447641 807.92944134 897.6092621 811.0859375 900.3359375 C815.108299 903.83292933 819.04379566 907.42859365 823 911 C824.66640851 912.50028679 826.33307353 914.00028872 828 915.5 C829.24136719 916.61761719 829.24136719 916.61761719 830.5078125 917.7578125 C832.14739879 919.23292618 833.78799655 920.70691652 835.4296875 922.1796875 C841.48392486 927.6149613 847.4898955 933.10132485 853.48095703 938.60595703 C854.95289916 939.95677503 856.42757736 941.30460973 857.90234375 942.65234375 C863.56259651 947.82634661 869.19879567 953.0255088 874.8125 958.25 C875.42262939 958.81630127 876.03275879 959.38260254 876.66137695 959.96606445 C879.64919201 962.75238987 882.58266435 965.57319549 885.44921875 968.484375 C887.65356054 970.70839304 889.90239192 972.79334014 892.29980469 974.8059082 C899.10696216 980.7330283 905.38040764 987.2369451 911.75390625 993.62109375 C913.18287327 995.04938592 914.61198861 996.47752973 916.04124451 997.90553284 C919.02578687 1000.88860676 922.00852824 1003.87346662 924.98999023 1006.85961914 C928.79480075 1010.67012639 932.60408379 1014.47612585 936.41473484 1018.28079128 C939.36350588 1021.22593362 942.30987233 1024.17347233 945.25553703 1027.12172127 C946.65850558 1028.5253527 948.0622057 1029.92825332 949.46667671 1031.33038139 C962.7127844 1044.55923338 962.7127844 1044.55923338 967.76914978 1050.54896545 C969.40643886 1052.4791459 971.18006562 1054.24282198 973 1056 C976.12410984 1059.08245505 979.02701088 1062.27509772 981.88671875 1065.6015625 C984.69736974 1068.79146953 987.59879414 1071.89255891 990.5 1075 C995.09091091 1079.926108 999.62250425 1084.88212442 1004 1090 C1004.87622321 1091.02220303 1005.75253345 1092.04433146 1006.62890625 1093.06640625 C1008.14327815 1094.83300549 1009.6571143 1096.60005129 1011.16943359 1098.3684082 C1014.43569159 1102.18544894 1017.72162988 1105.98450275 1021.02099609 1109.77294922 C1026.80565663 1116.41861402 1032.46216144 1123.14623941 1038 1130 C1039.01765561 1131.2478638 1040.03592745 1132.4952252 1041.0546875 1133.7421875 C1057.02788886 1153.30935916 1072.41626586 1173.30522633 1087.31640625 1193.70166016 C1088.86937559 1195.82167949 1090.43313709 1197.93321071 1092 1200.04296875 C1101.81993385 1213.35518601 1110.8821213 1227.18401102 1120.00874329 1240.9752655 C1122.67588314 1245.00551596 1125.35218634 1249.02944691 1128.03704834 1253.0479126 C1145.96901785 1279.88983209 1162.36609806 1307.76441247 1178 1336 C1178.75071777 1337.35496582 1178.75071777 1337.35496582 1179.51660156 1338.73730469 C1186.2359068 1350.89584226 1192.74327824 1363.15749013 1199.1328125 1375.4921875 C1200.91459324 1378.92839392 1202.7172036 1382.35108005 1204.5546875 1385.7578125 C1211.05315007 1397.83559386 1216.81338316 1410.20394588 1222.484375 1422.68896484 C1224.11826629 1426.2583646 1225.78200473 1429.81329032 1227.44921875 1433.3671875 C1230.94074415 1440.82613018 1234.31819711 1448.33235803 1237.625 1455.875 C1237.92003418 1456.54732666 1238.21506836 1457.21965332 1238.51904297 1457.91235352 C1243.23536137 1468.68837305 1247.70408497 1479.54990845 1252 1490.5 C1252.26113586 1491.16561951 1252.52227173 1491.83123901 1252.7913208 1492.51702881 C1254.54721426 1497.00387892 1256.27864404 1501.49980294 1258 1506 C1258.24638214 1506.64103668 1258.49276428 1507.28207336 1258.74661255 1507.9425354 C1262.77097997 1518.43111754 1266.4232865 1529.01825311 1269.9375 1539.6875 C1270.73027684 1542.08611408 1271.52372807 1544.48450436 1272.31724548 1546.88287354 C1272.83593324 1548.45089465 1273.35421995 1550.01904848 1273.87208557 1551.58734131 C1275.25259754 1555.76340765 1276.65245025 1559.93157585 1278.0859375 1564.08984375 C1282.3517907 1576.49461851 1285.8425791 1589.04950889 1289.14575195 1601.74291992 C1289.72902365 1603.96682039 1290.32173387 1606.18826135 1290.92260742 1608.4074707 C1293.80032293 1619.03637089 1296.39525754 1629.72412351 1298.9375 1640.4375 C1299.2675705 1641.82687775 1299.2675705 1641.82687775 1299.60430908 1643.24432373 C1304.62407023 1664.4077973 1309.10469051 1685.55043413 1312.52050781 1707.03613281 C1312.98050882 1709.87951988 1313.46644447 1712.71711997 1313.9609375 1715.5546875 C1318.82226687 1743.87827618 1321.82623071 1772.52468549 1323.75 1801.1875 C1323.80898468 1802.06346832 1323.86796936 1802.93943665 1323.92874146 1803.84194946 C1324.32893879 1809.89244496 1324.6803809 1815.94473633 1325 1822 C1325.0725853 1823.36019257 1325.0725853 1823.36019257 1325.14663696 1824.74786377 C1326.03876234 1841.99686766 1326.20090941 1859.23039313 1326.1875 1876.5 C1326.18738041 1877.18626842 1326.18726082 1877.87253685 1326.1871376 1878.57960129 C1326.18214157 1901.32867563 1325.75904875 1923.99944081 1324.16143799 1946.69885254 C1323.99503539 1949.07076587 1323.83479967 1951.44304335 1323.67529297 1953.81542969 C1321.91105945 1979.76572149 1319.27189553 2005.58943763 1315.375 2031.3125 C1315.20871094 2032.43241333 1315.20871094 2032.43241333 1315.0390625 2033.57495117 C1314.4746362 2037.0811976 1313.66709561 2039.88005229 1312 2043 C1311.67427002 2042.39341553 1311.34854004 2041.78683105 1311.01293945 2041.16186523 C1303.4196092 2027.03877427 1295.69192125 2013.00345945 1287.74951172 1999.07373047 C1285.90044536 1995.82509169 1284.06126154 1992.57097579 1282.22265625 1989.31640625 C1274.74436825 1976.11298881 1267.07816107 1963.04733926 1259.15869141 1950.10351562 C1254.7406293 1942.88153216 1250.40132003 1935.61927292 1246.125 1928.3125 C1241.55752522 1920.5310315 1236.8026622 1912.90931846 1231.8515625 1905.3671875 C1229.24317299 1901.39171753 1226.70009841 1897.37718099 1224.16259766 1893.35620117 C1203.25905274 1860.261387 1181.03981901 1827.96284926 1158.08203125 1796.265625 C1155.78913353 1793.09746242 1153.51235397 1789.91851537 1151.24755859 1786.73022461 C1141.81817966 1773.46032607 1132.15532657 1760.37654041 1122.11254883 1747.56396484 C1118.31770733 1742.71733565 1114.60515565 1737.81836197 1110.9375 1732.875 C1106.37371491 1726.7375483 1101.63161861 1720.77080681 1096.78271484 1714.85668945 C1093.32029885 1710.6334109 1089.91775527 1706.37128263 1086.5625 1702.0625 C1077.92602149 1691.00063293 1068.93177243 1680.22389037 1059.83642578 1669.53759766 C1056.9699312 1666.16518857 1054.16035649 1662.75210257 1051.375 1659.3125 C1047.79833687 1654.91485904 1044.05675177 1650.70731843 1040.23828125 1646.51953125 C1037.97152842 1643.96795083 1035.82459913 1641.34828468 1033.6875 1638.6875 C1029.27861892 1633.23623899 1024.5647602 1628.12286502 1019.78515625 1623 C1017.02153664 1620.03587706 1014.34501292 1617.00424383 1011.69140625 1613.94140625 C1005.11799726 1606.39640794 998.33909944 1599.02519366 991.54736328 1591.67675781 C990.52257338 1590.56627233 989.50007683 1589.45366572 988.47998047 1588.33886719 C978.2903943 1577.21894121 967.65418138 1566.54674433 957 1555.875 C956.27222351 1555.14463531 955.54444702 1554.41427063 954.7946167 1553.66177368 C952.67853443 1551.53976426 950.55867962 1549.42160039 948.4375 1547.3046875 C947.80768219 1546.67289078 947.17786438 1546.04109406 946.52896118 1545.39015198 C942.75165888 1541.63212067 938.86067799 1538.06288702 934.81506348 1534.59487915 C931.90247534 1532.03561544 929.20826001 1529.27183615 926.5 1526.5 C922.40796669 1522.35613152 918.26627622 1518.37702698 913.82421875 1514.60546875 C911.08349555 1512.19339758 908.56433135 1509.57316628 906.00390625 1506.97265625 C903.41753849 1504.42662171 900.6846472 1502.07978443 897.93359375 1499.71484375 C895.43568444 1497.4995262 893.11975011 1495.1310183 890.78125 1492.75 C888.91610326 1490.91757513 886.98072254 1489.20646865 885 1487.5 C881.77043633 1484.71760668 878.76677347 1481.78980571 875.78125 1478.75 C873.91610326 1476.91757513 871.98072254 1475.20646865 870 1473.5 C866.77043633 1470.71760668 863.76677347 1467.78980571 860.78125 1464.75 C858.91610326 1462.91757513 856.98072254 1461.20646865 855 1459.5 C851.77043633 1456.71760668 848.76677347 1453.78980571 845.78125 1450.75 C843.91610326 1448.91757513 841.98072254 1447.20646865 840 1445.5 C837.39352391 1443.2544206 834.91065479 1440.95448488 832.5 1438.5 C830.10946833 1436.06610268 827.64953738 1433.78644441 825.0625 1431.5625 C821.53365237 1428.52320349 818.26994973 1425.28983153 815.00390625 1421.97265625 C812.41753849 1419.42662171 809.6846472 1417.07978443 806.93359375 1414.71484375 C804.43568444 1412.4995262 802.11975011 1410.1310183 799.78125 1407.75 C797.91610326 1405.91757513 795.98072254 1404.20646865 794 1402.5 C791.39352391 1400.2544206 788.91065479 1397.95448488 786.5 1395.5 C784.10946833 1393.06610268 781.64953738 1390.78644441 779.0625 1388.5625 C775.53365237 1385.52320349 772.26994973 1382.28983153 769.00390625 1378.97265625 C766.41753849 1376.42662171 763.6846472 1374.07978443 760.93359375 1371.71484375 C758.43430862 1369.49830603 756.11718116 1367.12837719 753.77734375 1364.74609375 C751.93406426 1362.93522357 750.02177201 1361.24678646 748.0625 1359.5625 C744.53365237 1356.52320349 741.26994973 1353.28983153 738.00390625 1349.97265625 C735.41753849 1347.42662171 732.6846472 1345.07978443 729.93359375 1342.71484375 C727.43430862 1340.49830603 725.11718116 1338.12837719 722.77734375 1335.74609375 C720.93406426 1333.93522357 719.02177201 1332.24678646 717.0625 1330.5625 C713.53365237 1327.52320349 710.26994973 1324.28983153 707.00390625 1320.97265625 C704.41753849 1318.42662171 701.6846472 1316.07978443 698.93359375 1313.71484375 C696.43430862 1311.49830603 694.11718116 1309.12837719 691.77734375 1306.74609375 C689.93406426 1304.93522357 688.02177201 1303.24678646 686.0625 1301.5625 C682.53365237 1298.52320349 679.26994973 1295.28983153 676.00390625 1291.97265625 C673.41753849 1289.42662171 670.6846472 1287.07978443 667.93359375 1284.71484375 C665.43430862 1282.49830603 663.11718116 1280.12837719 660.77734375 1277.74609375 C658.93406426 1275.93522357 657.02177201 1274.24678646 655.0625 1272.5625 C652.25423653 1270.14382221 649.60029407 1267.64100317 647 1265 C644.41990785 1262.37959391 641.78896393 1259.89676588 639 1257.5 C635.48858352 1254.48237647 632.24692598 1251.26640919 629 1247.96875 C627.06108998 1246.06013545 625.06300449 1244.27289448 623 1242.5 C619.48858352 1239.48237647 616.24692598 1236.26640919 613 1232.96875 C611.06108998 1231.06013545 609.06300449 1229.27289448 607 1227.5 C603.48858352 1224.48237647 600.24692598 1221.26640919 597 1217.96875 C595.06108998 1216.06013545 593.06300449 1214.27289448 591 1212.5 C587.48858352 1209.48237647 584.24692598 1206.26640919 581 1202.96875 C579.06108998 1201.06013545 577.06300449 1199.27289448 575 1197.5 C571.48858352 1194.48237647 568.24692598 1191.26640919 565 1187.96875 C563.06108998 1186.06013545 561.06300449 1184.27289448 559 1182.5 C556.21103607 1180.10323412 553.58009215 1177.62040609 551 1175 C548.44009866 1172.40017817 545.8322046 1169.93731602 543.0625 1167.5625 C539.25175937 1164.28869347 535.74921835 1160.76636029 532.22265625 1157.19140625 C529.5729856 1154.57898932 526.78827197 1152.16697379 523.96484375 1149.74609375 C521.89179676 1147.90384325 519.94564198 1145.97598338 518 1144 C515.46027814 1141.4207494 512.87548686 1138.97782611 510.125 1136.625 C506.93317491 1133.88378551 503.95697023 1130.99314112 501 1128 C498.08373397 1125.04816975 495.15394165 1122.19611141 492 1119.5 C487.92376781 1116.01547893 484.20449127 1112.21918019 480.4375 1108.40625 C478.34999365 1106.34550655 476.22830777 1104.40484374 474 1102.5 C470.84605835 1099.80388859 467.91626603 1096.95183025 465 1094 C462.14476317 1091.11010172 459.28499804 1088.31548255 456.1875 1085.6875 C451.85827705 1081.99053679 447.89449524 1077.95068842 443.91870117 1073.8815918 C441.11410421 1071.03178043 438.25476074 1068.32191583 435.21875 1065.71875 C429.29940853 1060.60375924 423.90824642 1054.95231076 418.421875 1049.3828125 C413.99767095 1044.91789491 409.53572366 1040.58853777 404.74633789 1036.51538086 C398.97309223 1031.50565965 393.9620529 1025.79373409 389 1020 C388.06924434 1018.92167305 387.13823463 1017.84356534 386.20703125 1016.765625 C380.02643639 1009.59832103 373.96098292 1002.3515548 368 995 C367.00444133 993.78601933 366.00831046 992.57250776 365.01171875 991.359375 C358.77411261 983.74962809 352.68212475 976.04951677 346.7331543 968.21191406 C343.39112396 963.80960131 340.0000878 959.45292557 336.5625 955.125 C329.81021743 946.58942229 323.40516443 937.79732629 317 929 C316.43990234 928.23075195 315.87980469 927.46150391 315.30273438 926.66894531 C312.02724743 922.1637074 308.76781012 917.64724901 305.52197266 913.12060547 C304.55762614 911.77695551 303.59138582 910.43466106 302.62255859 909.09423828 C269.98296429 863.91662868 240.48312247 816.15936423 213.38476562 767.48388672 C212.37296737 765.66900036 211.35823629 763.85574816 210.34179688 762.04345703 C199.44660555 742.60398867 189.11439297 722.90973332 179.03448486 703.03643799 C178.05446581 701.10721883 177.07082921 699.17990344 176.08544922 697.25341797 C167.48724819 680.42620684 159.48745194 663.38831939 151.76501465 646.14680481 C149.72909312 641.60564262 147.66216331 637.07994843 145.57421875 632.5625 C123.20235416 584.0415139 104.59491868 533.85674959 87.2010498 483.36763 C85.67956983 478.95316992 84.13702038 474.54711862 82.5703125 470.1484375 C79.14841463 460.52269336 76.00891603 450.89356089 73.28710938 441.0456543 C71.37797499 434.17392833 69.21755732 427.40278097 67 420.625 C64.06358039 411.60510606 61.46913365 402.55465485 59.14404297 393.35913086 C57.60083345 387.25776666 55.91349974 381.22092106 54.125 375.1875 C50.90588839 364.22978652 48.36040988 353.1155784 45.80322266 341.98901367 C45.47973198 340.58376639 45.15600639 339.17857317 44.83203125 337.7734375 C44.67589859 337.09602509 44.51976593 336.41861267 44.35890198 335.72067261 C43.23314216 330.88411057 41.95985228 326.10200267 40.62329102 321.3203125 C39.77903138 318.17740473 39.15517631 315.01147958 38.5625 311.8125 C37.59661069 306.81875272 36.48785216 301.91662077 35.1875 297 C31.75583537 283.83849695 29.51427295 270.35900863 27 257 C26.7532251 255.70698975 26.5064502 254.41397949 26.25219727 253.08178711 C24.38316053 243.26422204 22.68874897 233.42296272 21.0625 223.5625 C20.93271759 222.77643372 20.80293518 221.99036743 20.66921997 221.18048096 C20.14099404 217.97997019 19.61300082 214.77942294 19.08695984 211.57855225 C18.37383002 207.24343507 17.64521461 202.91151022 16.8984375 198.58203125 C10.67872566 162.04122421 7.54866289 124.97090919 4.2734375 88.07598877 C4.09198634 86.03478472 3.90889614 83.99372567 3.72412109 81.95281982 C2.45968353 67.93684605 1.55278536 53.9397971 0.99462891 39.87792969 C0.87361406 36.84021001 0.74396558 33.80294264 0.61328125 30.765625 C0.18323334 20.50377058 -0.13992876 10.27254815 0 0 Z " fill="#FDD79E" transform="translate(4513,4268)"/>
<path d="M0 0 C0.33 0 0.66 0 1 0 C2.47515713 6.1665516 3.9501652 12.33313884 5.42504883 18.49975586 C5.92435914 20.58733021 6.42370668 22.67489565 6.9230957 24.76245117 C7.16310303 25.76574463 7.40311035 26.76903809 7.65039062 27.80273438 C7.89048859 28.80630981 8.13058655 29.80988525 8.37796021 30.84387207 C8.86515649 32.88159878 9.35186689 34.91944172 9.83810425 36.95739746 C11.00779119 41.8591943 12.18276766 46.75952792 13.37353516 51.65625 C15.86599083 61.94053144 18.12005248 72.20841846 20 82.625 C20.2498532 83.98901889 20.50019006 85.35294927 20.75097656 86.71679688 C21.25748722 89.47387334 21.76129675 92.23142515 22.26367188 94.98925781 C22.96515074 98.82701861 23.69104321 102.65990104 24.421875 106.4921875 C26.44245145 117.12591771 28.42027222 127.702172 29.54296875 138.47265625 C29.89841664 141.21598487 30.36449494 143.8129204 30.94091797 146.51074219 C32.06966325 152.09855022 32.77268155 157.69240752 33.40234375 163.35546875 C33.52475937 164.43327606 33.64717499 165.51108337 33.77330017 166.62155151 C42.88690167 247.69509121 46.94228319 331.31633658 30.44726562 411.77197266 C29.98051265 414.0970751 29.55591446 416.42690074 29.140625 418.76171875 C21.96659289 458.78398711 8.84827915 498.04672056 -8 535 C-8.39799805 535.88107422 -8.79599609 536.76214844 -9.20605469 537.66992188 C-31.69770657 587.2215546 -64.46585119 631.38564227 -101.3671875 671.12109375 C-103.4019708 673.34607193 -105.39425288 675.59157001 -107.37109375 677.8671875 C-110.88425032 681.89723649 -114.5156345 685.80226673 -118.1875 689.6875 C-119.50950061 691.09208469 -120.83111016 692.49703754 -122.15234375 693.90234375 C-123.1266333 694.9385083 -123.1266333 694.9385083 -124.12060547 695.99560547 C-128.30398621 700.45722614 -132.44422568 704.95851842 -136.58251953 709.46191406 C-138.00720435 711.00781733 -139.43843373 712.54742551 -140.87109375 714.0859375 C-146.06841292 719.68428991 -151.03755288 725.40904178 -155.828125 731.36328125 C-157.93756349 733.92420028 -160.12887648 736.37123455 -162.375 738.8125 C-167.93576875 744.93991012 -172.98717126 751.42532953 -178 758 C-178.54317871 758.70801758 -179.08635742 759.41603516 -179.64599609 760.14550781 C-188.92177675 772.28536127 -197.26172281 784.82830599 -205 798 C-205.48065918 798.81549316 -205.96131836 799.63098633 -206.45654297 800.47119141 C-221.65397013 826.50668709 -232.12952805 854.19327513 -239.34765625 883.38183594 C-239.93297186 885.73098438 -240.53838553 888.07330674 -241.15625 890.4140625 C-253.22839536 936.40079906 -253.76437078 988.11865118 -247 1035 C-246.85546387 1036.00514648 -246.71092773 1037.01029297 -246.56201172 1038.04589844 C-245.56074475 1044.73653506 -244.33080446 1051.36788395 -243 1058 C-242.79004395 1059.06718262 -242.58008789 1060.13436523 -242.36376953 1061.23388672 C-238.75735196 1079.40216463 -234.16876026 1097.21707124 -229 1115 C-228.76958008 1115.80324707 -228.53916016 1116.60649414 -228.30175781 1117.43408203 C-217.35998052 1155.34267116 -200.1656023 1191.59348647 -183 1227 C-186.59033668 1227 -187.55587708 1226.18691281 -190.47265625 1224.17578125 C-191.80901123 1223.26046631 -191.80901123 1223.26046631 -193.17236328 1222.32666016 C-194.1261084 1221.6619873 -195.07985352 1220.99731445 -196.0625 1220.3125 C-197.04460449 1219.63493652 -198.02670898 1218.95737305 -199.03857422 1218.25927734 C-212.23161191 1209.12333872 -225.22764315 1199.71542412 -238 1190 C-239.51400391 1188.85337891 -239.51400391 1188.85337891 -241.05859375 1187.68359375 C-249.24234636 1181.45712723 -257.22819262 1174.9979321 -265.18408203 1168.48388672 C-266.76299721 1167.19366805 -268.34778627 1165.91064412 -269.93359375 1164.62890625 C-281.03595191 1155.63814072 -291.77138892 1146.22675736 -302.2578125 1136.52734375 C-304.71349521 1134.26405783 -307.19362593 1132.03347539 -309.6875 1129.8125 C-321.12970631 1119.51451432 -332.22473415 1108.86870414 -343.125 1098 C-344.0013208 1097.12827148 -344.8776416 1096.25654297 -345.78051758 1095.35839844 C-350.20052464 1090.92776942 -354.46013967 1086.42654208 -358.53857422 1081.6796875 C-360.27064219 1079.68893781 -362.10206135 1077.83249249 -364 1076 C-367.21434731 1072.8288397 -370.21750963 1069.54417247 -373.16015625 1066.12109375 C-375.19508819 1063.77508942 -377.28290967 1061.4826355 -379.375 1059.1875 C-383.25033743 1054.89391368 -386.9222131 1050.46911998 -390.55859375 1045.97265625 C-393.27720058 1042.66248057 -396.07098579 1039.42517546 -398.875 1036.1875 C-404.35415634 1029.83849823 -409.57698466 1023.31787604 -414.70166016 1016.68066406 C-415.9358501 1015.08304023 -417.17673038 1013.4905914 -418.41796875 1011.8984375 C-435.81475568 989.47843477 -452.20019073 966.30280372 -467.47509766 942.38671875 C-468.97088701 940.04556654 -470.47538505 937.71018419 -471.98046875 935.375 C-483.26440921 917.77897737 -493.6869526 899.65288259 -503.72412109 881.32080078 C-505.10395561 878.81090661 -506.49888212 876.30972575 -507.89453125 873.80859375 C-514.56862897 861.79112 -520.72563175 849.60368511 -526.53320312 837.14550781 C-528.11317075 833.75730826 -529.70495499 830.3747864 -531.296875 826.9921875 C-533.54788472 822.20227458 -535.76389685 817.39882757 -537.95703125 812.58203125 C-539.7529084 808.64368445 -541.6121756 804.77456847 -543.63671875 800.94921875 C-549.95589855 788.57239711 -549.58376508 777.60113538 -548.3515625 763.95556641 C-547.97295042 759.69565465 -547.66963306 755.4342829 -547.375 751.16796875 C-546.02869892 732.20784412 -543.99511551 713.37822328 -541.46875 694.54150391 C-541.03203246 691.24201192 -540.61955371 687.94073992 -540.21875 684.63671875 C-537.3808773 661.42506184 -532.30060901 638.75143156 -527 616 C-526.74992187 614.91219238 -526.49984375 613.82438477 -526.2421875 612.70361328 C-522.73344072 597.52876542 -518.15384965 582.87113771 -513.07421875 568.15234375 C-512.09090651 565.26676929 -511.14461596 562.37317885 -510.21875 559.46875 C-504.34747862 541.10899565 -497.09390081 523.25716511 -488.13525391 506.18066406 C-486.83354848 503.6802699 -485.56352361 501.16479902 -484.29296875 498.6484375 C-466.16017844 462.98123896 -442.95163847 431.18087458 -415.6875 402 C-415.04208252 401.30608154 -414.39666504 400.61216309 -413.73168945 399.8972168 C-409.94589223 395.88368059 -406.01666721 392.1632521 -401.82836914 388.57226562 C-399.45093891 386.52784705 -397.16806138 384.38822444 -394.875 382.25 C-366.16389692 356.13825605 -331.83026384 336.50891659 -298.47900391 316.99780273 C-262.25612743 295.80201409 -227.38427031 271.82220921 -195.59179688 244.36962891 C-193.91748917 242.92900525 -192.23325536 241.50068597 -190.546875 240.07421875 C-183.04571207 233.71505481 -175.7537762 227.1699555 -168.56933594 220.45605469 C-166.59102895 218.6205502 -164.58465496 216.81652201 -162.58276367 215.00683594 C-155.73724249 208.78463425 -149.17308243 202.28169021 -142.625 195.75 C-142.1505545 195.2781427 -141.67610901 194.8062854 -141.18728638 194.32012939 C-136.15270235 189.30723441 -131.23915512 184.25266329 -126.61376953 178.85888672 C-123.88119807 175.71126205 -120.99177233 172.71237527 -118.125 169.6875 C-113.29146533 164.54765042 -108.67437054 159.31704566 -104.26953125 153.80078125 C-102.10064498 151.12420388 -99.87221412 148.51554635 -97.61474609 145.9140625 C-92.00031543 139.44307353 -86.65532781 132.81619945 -81.49755859 125.97460938 C-79.74665041 123.6659453 -77.97724344 121.37201951 -76.20703125 119.078125 C-68.69608008 109.32499194 -61.36145754 99.51302002 -54.52246094 89.27636719 C-52.76575189 86.64975474 -50.99579964 84.03225165 -49.2265625 81.4140625 C-31.47820156 55.06503303 -15.26509159 27.85703351 0 0 Z " fill="#FDD79E" transform="translate(5372,2715)"/>
<path d="M0 0 C0.33 0 0.66 0 1 0 C0.49070906 12.80866715 -1.86875338 25.38436123 -4 38 C-4.13164551 38.78955078 -4.26329102 39.57910156 -4.39892578 40.39257812 C-7.46951438 58.75697873 -10.92668509 77.07705963 -16 95 C-16.60581178 97.33290675 -17.20991449 99.66625783 -17.8125 102 C-25.6981382 131.32850822 -35.76134848 159.65759696 -49 187 C-49.35658691 187.74878418 -49.71317383 188.49756836 -50.08056641 189.26904297 C-63.26373349 216.94019572 -80.17414201 242.791223 -101.2734375 265.0625 C-103.14031345 267.03965832 -104.90429791 269.06640752 -106.625 271.171875 C-108.54336313 273.45624162 -110.3514495 275.34702822 -112.625 277.25 C-114.90054641 279.18063919 -117.12772076 281.12119329 -119.29296875 283.17578125 C-143.51154256 306.11771706 -173.34695952 320.74278093 -202.921875 335.43359375 C-203.88243805 335.911418 -204.8430011 336.38924225 -205.83267212 336.88154602 C-210.6274181 339.26634891 -215.42517625 341.64455736 -220.22998047 344.0090332 C-252.27115718 359.85024697 -282.02069529 379.47419425 -303 409 C-303.40959961 409.57588867 -303.81919922 410.15177734 -304.24121094 410.74511719 C-326.6603899 442.61500391 -337.19531866 477.11132983 -344 515 C-344.16558914 515.90450394 -344.33117828 516.80900787 -344.50178528 517.74092102 C-346.25476976 529.20809498 -346.14298307 540.99350237 -346.09765625 552.5625 C-346.09578337 553.97452748 -346.0943636 555.38655562 -346.09336853 556.79858398 C-346.08961169 560.4546092 -346.07984285 564.11059252 -346.06866455 567.76660156 C-346.05830047 571.52147862 -346.05383932 575.27636266 -346.04882812 579.03125 C-346.03821191 586.35418544 -346.02122151 593.67708678 -346 601 C-371.65375102 575.3750911 -390.80129094 542.00743018 -403 508 C-403.36722168 507.00000977 -403.73444336 506.00001953 -404.11279297 504.96972656 C-414.91470346 475.17728748 -419.22445747 444.5861554 -419.25 413 C-419.25133942 412.02423004 -419.25267883 411.04846008 -419.25405884 410.04312134 C-419.24934466 394.18318017 -418.53660902 378.68574479 -416 363 C-415.82380127 361.89350098 -415.82380127 361.89350098 -415.64404297 360.76464844 C-414.93090365 356.46505158 -414.00839601 352.23891356 -413 348 C-412.83806152 347.27925293 -412.67612305 346.55850586 -412.50927734 345.81591797 C-404.35303513 309.55340067 -389.10211712 274.27695878 -366 245 C-365.24074219 244.02933594 -364.48148438 243.05867188 -363.69921875 242.05859375 C-343.55334737 216.90309183 -320.27170061 198.17365059 -290.625 185.3125 C-289.86106934 184.98040527 -289.09713867 184.64831055 -288.31005859 184.30615234 C-274.94907686 178.69982233 -261.04676144 174.33643684 -247.32165527 169.71923828 C-230.32110845 163.99825353 -213.40831144 158.28622157 -197 151 C-196.36271973 150.7220459 -195.72543945 150.4440918 -195.06884766 150.15771484 C-158.78382327 134.25579565 -123.87264759 112.77679368 -92.68847656 88.32373047 C-90.94389478 86.95601468 -89.18774881 85.60423882 -87.4296875 84.25390625 C-76.3867308 75.7271618 -65.81483768 66.65331235 -55.49829102 57.26293945 C-53.94470709 55.85571094 -52.38393356 54.45632704 -50.81225586 53.06933594 C-44.14039015 47.16381873 -37.80757256 40.96142863 -31.52172852 34.65209961 C-29.80792767 32.9329133 -28.08880918 31.21917417 -26.36914062 29.50585938 C-20.70230797 23.84301557 -15.13276087 18.15983264 -10 12 C-9.28275757 11.14136353 -9.28275757 11.14136353 -8.55102539 10.26538086 C-6.79059451 8.14362937 -5.04240273 6.01221102 -3.30078125 3.875 C-2.22179089 2.56551325 -1.11369107 1.28010467 0 0 Z " fill="#FDD79E" transform="translate(5599,3310)"/>
<path d="M0 0 C1.03220673 -0.00181274 2.06441345 -0.00362549 3.12789917 -0.00549316 C14.9325213 -0.0031456 26.4111386 0.37380758 38.0625 2.375 C35.36841004 4.49707284 32.72117807 6.15173803 29.640625 7.65234375 C17.82035608 13.54014632 7.22770621 19.93770548 -2.9375 28.375 C-3.47084961 28.81199219 -4.00419922 29.24898437 -4.55371094 29.69921875 C-19.51999612 42.09958251 -31.92979143 61.08972405 -34.34960938 80.71777344 C-34.54486683 84.17705112 -34.59438336 87.59792075 -34.5625 91.0625 C-34.55557129 92.31490479 -34.54864258 93.56730957 -34.54150391 94.85766602 C-34.24474925 107.8747026 -31.43899981 119.89635537 -27.9375 132.375 C-27.36951516 134.46311292 -26.80309011 136.55165078 -26.23828125 138.640625 C-25.45841561 141.51878907 -24.67309085 144.39393806 -23.85498047 147.26147461 C-16.50270444 173.17437405 -20.12850044 200.43195682 -32.953125 223.87890625 C-33.61197348 225.04574832 -34.27325398 226.21122211 -34.9375 227.375 C-35.46859375 228.33277344 -35.9996875 229.29054688 -36.546875 230.27734375 C-52.62892958 257.38595556 -79.20072008 274.1244847 -106.9375 287.375 C-107.66227539 287.72320801 -108.38705078 288.07141602 -109.13378906 288.43017578 C-146.26042024 305.6994827 -190.22255661 301.89102104 -227.9375 289.375 C-226.7762441 285.89123231 -225.8998468 285.35990611 -223 283.25 C-218.55544219 279.90599936 -214.44425489 276.30884923 -210.33984375 272.55859375 C-208.23537519 270.6457516 -206.09862864 268.78554763 -203.9375 266.9375 C-196.31147224 260.26280769 -189.45629665 253.0623506 -183.14453125 245.13671875 C-181.71260746 243.34491323 -180.25288272 241.57484587 -178.76171875 239.83203125 C-147.37708261 202.9843501 -133.67415958 156.40721879 -132.69921875 108.71875 C-132.6722995 107.44517639 -132.6722995 107.44517639 -132.64483643 106.14587402 C-132.55894844 101.90773575 -132.49210078 97.67048212 -132.45458984 93.43164062 C-132.14636362 70.11409136 -127.28526808 48.3567958 -110.7265625 30.97265625 C-99.29792064 20.32833295 -84.74699494 13.04631452 -69.9375 8.375 C-68.96039063 8.04886719 -67.98328125 7.72273438 -66.9765625 7.38671875 C-45.17393026 0.80527149 -22.59282572 -0.0025864 0 0 Z " fill="#FDD79E" transform="translate(5525.9375,3701.625)"/>
</svg>
